<?xml version="1.0" encoding="UTF-8"?>
<svg id="Ebene_2" xmlns="http://www.w3.org/2000/svg" version="1.1" viewBox="0 0 317 84.4">
  <defs>
    <style>
      .st0 {
        fill: #0e0e09;
      }
    </style>
  </defs>
  <g id="Ebene_1-2">
    <g>
      <path class="st0" d="M179.5,59h-4.4v24.1h4.4v-24.1ZM163.5,45.1l3.5-10.2,3.5,10.2h-7ZM162.2,48.9h9.6l2,5.7h4.6l-8.7-24.1h-5.4l-8.7,24.1h4.6l2-5.7h0ZM170,59h-16.2v24.1h16.5v-3.8h-12.1v-6.4h11.4v-3.8h-11.4v-6.3h11.8v-3.8ZM144,62.8l-12,16.5v3.8h17.8v-3.8h-12.6l12.1-16.5v-3.8h-16.9v3.8s11.5,0,11.5,0ZM121.7,30.5h-4.4v24.1h4.4v-24.1ZM89.2,30.5h-16.2v24.1h16.5v-3.8h-12.1v-6.4h11.4v-3.8h-11.4v-6.3h11.8s0-3.8,0-3.8ZM63.2,34.3l-12,16.5v3.8h17.8v-3.8h-12.5l12.1-16.5v-3.8h-16.9v3.8s11.5,0,11.5,0ZM14.1,9.5c0,2.4-1.6,3.6-4.2,3.6h-5.4v-7.3h5.2c2.9,0,4.4,1.3,4.4,3.7M14.5,14.9c2.4-.8,4.1-2.9,4.1-5.8,0-4.4-3.3-7.2-8.5-7.2H0v24.1h4.4v-9.1h5.8c2.5,0,3.5.9,3.6,2.8l.5,6.3h4.5l-.6-7c-.2-2.5-1.5-3.8-3.7-4.2M23.1,26.1h16.5v-3.8h-12.1v-6.4h11.4v-3.8h-11.4v-6.3h11.8V2h-16.2v24.1ZM57.3,16.6h-7l3.5-10.2,3.5,10.2ZM60.6,26.1h4.6L56.5,2h-5.4l-8.7,24.1h4.6l2-5.7h9.5s2,5.7,2,5.7ZM68.5,26.1h15.9v-3.8h-11.5V2h-4.4v24.1ZM88.9,26.1h15.9v-3.8h-11.5V2h-4.4v24.1ZM112.7,30.5h-5.2l-9.4,11v-11h-4.4v24.1h4.4v-7.4l2.7-3.1,7.5,10.5h5.1l-9.6-13.5,9-10.6h0ZM122.7,16.6h-7l3.5-10.2,3.5,10.2ZM126,26.1h4.6L121.9,2h-5.4l-8.7,24.1h4.6l2-5.7h9.6s2,5.7,2,5.7ZM149,19c0,2.2-1.7,3.4-4.5,3.4h-5.6v-6.8h5.6c2.8,0,4.5,1.2,4.5,3.4M143.4,12.1h-4.5v-6.4h4.5c3,0,4.6,1,4.6,3.2s-1.7,3.2-4.6,3.2M147.7,13.6c3.1-.3,4.9-2.2,4.9-5.1,0-4.5-3.1-6.5-9-6.5h-9v24.1h10.3c5.6,0,8.8-2.2,8.8-6.6s-2.1-5.5-5.9-5.9M150.3,54.6l6.4-24.1h-4.7l-4.4,18-4.5-18h-4.1l-4.4,18-4.4-18h-4.7l6.5,24.1h4.9l4.2-16.5,4.2,16.5h4.9,0ZM175.3,14.1c0,5.5-2.6,8.7-6.9,8.7s-6.9-3.2-6.9-8.7,2.6-8.8,6.9-8.8,6.9,3.3,6.9,8.8M179.9,14.1c0-7.8-4.3-12.6-11.5-12.6s-11.5,4.9-11.5,12.6,4.4,12.6,11.5,12.6,11.5-4.8,11.5-12.6M197.7,9.5c0,2.4-1.6,3.6-4.2,3.6h-5.4v-7.3h5.2c2.9,0,4.4,1.3,4.4,3.7M198.1,14.9c2.4-.8,4.1-2.9,4.1-5.8,0-4.4-3.3-7.2-8.5-7.2h-10.1v24.1h4.4v-9.1h5.8c2.5,0,3.5.9,3.6,2.8l.5,6.3h4.5l-.6-7c-.2-2.5-1.5-3.8-3.7-4.2M195.2,62.8h7.3v-3.8h-19.1v3.8h7.3v20.3h4.4v-20.3h0ZM223.8,79.3h-12.6l12.1-16.5v-3.8h-16.9v3.8h11.5l-12,16.5v3.8h17.8v-3.8Z"/>
      <path class="st0" d="M295.2,21.8c0-12-9.8-21.8-21.8-21.8s-21.8,9.7-21.8,21.7h0c0-12-9.8-21.7-21.8-21.7s-21.8,9.8-21.8,21.8,7.1,18.8,16.6,21.1c-1.5-4.2-1.5-9,.5-13.5,4.1-9,14.8-13,23.9-8.8.9.4,1.7.9,2.5,1.4h0c3.3,2.2,5.7,5.4,7,8.9h0c1.6,4.5,4.9,8.3,9.6,10.5,3.9,1.8,8.1,2,12,1,8.7-2.9,14.9-11,14.9-20.7M273.4,62.6c0-12-9.8-21.8-21.8-21.8s-21.8,9.8-21.8,21.8,9.8,21.8,21.8,21.8,21.8-9.8,21.8-21.8M317,62.6c0-12-9.8-21.8-21.8-21.8s-21.8,9.8-21.8,21.8,9.8,21.8,21.8,21.8,21.8-9.8,21.8-21.8"/>
    </g>
  </g>
</svg>
