<?xml version="1.0" encoding="utf-8"?>
<!-- Generator: $$$/GeneralStr/196=Adobe Illustrator 27.6.0, SVG Export Plug-In . SVG Version: 6.00 Build 0)  -->
<svg version="1.1" id="Ebene_1" xmlns="http://www.w3.org/2000/svg" xmlns:xlink="http://www.w3.org/1999/xlink" x="0px" y="0px"
	 width="1000px" height="350px" viewBox="0 0 1000 350" style="enable-background:new 0 0 1000 350;" xml:space="preserve">
<style type="text/css">
	.st0{fill:#FFFFFF;}
	.st1{fill:#1E3D7A;}
	.st2{fill:#00A1DA;}
	.st3{fill:#42B7AC;}
	.st4{fill:#FCC203;}
	.st5{fill:#0C2D42;}
</style>

<g>
	<g>
		<g>
			<path class="st1" d="M178.6,60.1c-0.4,0-0.8,0.2-1.1,0.5c-0.3,0.3-0.5,0.7-0.5,1.1s0.2,0.8,0.5,1.1c0.3,0.3,0.7,0.5,1.1,0.5
				c0.4,0,0.8-0.2,1.1-0.5c0.3-0.3,0.5-0.7,0.5-1.1s-0.2-0.8-0.5-1.1C179.5,60.2,179.1,60.1,178.6,60.1L178.6,60.1z"/>
			<path class="st1" d="M163,60.1c-0.4,0-0.8,0.2-1.1,0.4c-0.3,0.3-0.4,0.7-0.4,1.1c0,0.8,0.7,1.5,1.5,1.5c0.8,0,1.5-0.7,1.5-1.5
				c0-0.4-0.2-0.8-0.4-1.1C163.8,60.2,163.4,60.1,163,60.1L163,60.1z"/>
			<path class="st1" d="M170.7,66.9c-1,0-1.8,0.8-1.8,1.8c0,1,0.8,1.8,1.8,1.8c0.5,0,0.9-0.2,1.2-0.5c0.3-0.3,0.5-0.8,0.5-1.2
				c0-0.5-0.2-0.9-0.5-1.2C171.5,67.1,171.1,66.9,170.7,66.9L170.7,66.9z"/>
			<path class="st1" d="M155.7,67.8c-0.9,0-1.7,0.8-1.7,1.7c0,0.9,0.8,1.7,1.7,1.7c0.4,0,0.9-0.2,1.2-0.5c0.3-0.3,0.5-0.8,0.5-1.2
				c0-0.4-0.2-0.9-0.5-1.2C156.6,68,156.1,67.8,155.7,67.8L155.7,67.8z"/>
			<path class="st1" d="M185.1,68.1c-0.5,0-0.9,0.2-1.3,0.5c-0.4,0.4-0.5,0.8-0.5,1.3c0,1,0.8,1.8,1.8,1.8c1,0,1.8-0.8,1.8-1.8
				c0-0.5-0.2-0.9-0.5-1.3C186.1,68.3,185.6,68.1,185.1,68.1L185.1,68.1z"/>
			<path class="st1" d="M140.6,71c-0.4,0-0.8,0.2-1.1,0.5c-0.3,0.3-0.5,0.7-0.5,1.1c0,0.4,0.2,0.8,0.5,1.1c0.3,0.3,0.7,0.5,1.1,0.5
				c0.4,0,0.8-0.2,1.1-0.5c0.3-0.3,0.5-0.7,0.5-1.1C142.2,71.7,141.5,71,140.6,71L140.6,71z"/>
			<path class="st1" d="M198.9,71.4c-0.5,0-1,0.2-1.3,0.6c-0.4,0.4-0.6,0.8-0.6,1.3c0,1.1,0.8,1.9,1.9,1.9s1.9-0.8,1.9-1.9
				c0-0.5-0.2-1-0.6-1.3C199.8,71.6,199.3,71.4,198.9,71.4L198.9,71.4z"/>
			<path class="st1" d="M163.7,74.5c-0.5,0-1,0.2-1.3,0.5c-0.4,0.4-0.5,0.8-0.5,1.3s0.2,1,0.5,1.3c0.4,0.4,0.8,0.5,1.3,0.5
				c0.5,0,1-0.2,1.3-0.5c0.4-0.4,0.5-0.8,0.5-1.3c0-0.5-0.2-1-0.5-1.3C164.7,74.7,164.3,74.5,163.7,74.5L163.7,74.5z"/>
			<path class="st1" d="M177.6,74.9c-0.5,0-1,0.2-1.4,0.6c-0.4,0.4-0.6,0.9-0.6,1.4c0,1.1,0.9,1.9,1.9,1.9c1.1,0,1.9-0.9,1.9-1.9
				c0-0.5-0.2-1-0.6-1.4C178.6,75.1,178.2,74.9,177.6,74.9L177.6,74.9z"/>
			<path class="st1" d="M149.6,76.2c-1,0-1.8,0.8-1.8,1.8c0,1,0.8,1.8,1.8,1.8c0.5,0,0.9-0.2,1.3-0.5c0.4-0.4,0.5-0.8,0.5-1.3
				C151.4,77,150.6,76.2,149.6,76.2L149.6,76.2z"/>
			<path class="st1" d="M125.8,76.5c-0.8,0-1.5,0.7-1.5,1.5c0,0.4,0.2,0.8,0.4,1.1c0.3,0.3,0.7,0.4,1.1,0.4s0.8-0.2,1.1-0.4
				c0.3-0.3,0.4-0.7,0.4-1.1s-0.2-0.8-0.4-1.1C126.6,76.7,126.2,76.5,125.8,76.5L125.8,76.5z"/>
			<path class="st1" d="M190.7,77.4c-0.5,0-1.1,0.2-1.5,0.6c-0.4,0.4-0.6,0.9-0.6,1.5c0,0.5,0.2,1.1,0.6,1.5
				c0.4,0.4,0.9,0.6,1.5,0.6c0.5,0,1.1-0.2,1.5-0.6c0.4-0.4,0.6-0.9,0.6-1.5c0-0.5-0.2-1.1-0.6-1.5
				C191.8,77.6,191.3,77.4,190.7,77.4L190.7,77.4z"/>
			<path class="st1" d="M135.4,80.2c-0.4,0-0.9,0.2-1.2,0.5c-0.3,0.3-0.5,0.8-0.5,1.2c0,1,0.8,1.7,1.7,1.7c0.9,0,1.7-0.8,1.7-1.7
				c0-0.4-0.2-0.9-0.5-1.2C136.3,80.4,135.8,80.2,135.4,80.2L135.4,80.2z"/>
			<path class="st1" d="M202.9,81.7c-0.6,0-1.1,0.2-1.5,0.6s-0.6,0.9-0.6,1.5c0,0.6,0.2,1.1,0.6,1.5c0.4,0.4,0.9,0.6,1.5,0.6
				c0.6,0,1.1-0.2,1.5-0.6c0.4-0.4,0.6-0.9,0.6-1.5c0-0.6-0.2-1.1-0.6-1.5C204,81.9,203.5,81.7,202.9,81.7L202.9,81.7z"/>
			<path class="st1" d="M171.2,82.6c-1.1,0-2.1,0.9-2.1,2.1c0,0.5,0.2,1.1,0.6,1.5c0.4,0.4,0.9,0.6,1.5,0.6c0.5,0,1.1-0.2,1.5-0.6
				c0.4-0.4,0.6-0.9,0.6-1.5C173.3,83.5,172.4,82.6,171.2,82.6L171.2,82.6z"/>
			<path class="st1" d="M158.1,82.8c-0.5,0-1.1,0.2-1.4,0.6c-0.4,0.4-0.6,0.9-0.6,1.4c0,1.1,0.9,2,2,2s2-0.9,2-2
				c0-0.5-0.2-1.1-0.6-1.4C159.2,83,158.6,82.8,158.1,82.8L158.1,82.8z"/>
			<path class="st1" d="M183.8,84.4c-1.2,0-2.2,1-2.2,2.2c0,0.6,0.2,1.1,0.6,1.5c0.4,0.4,1,0.6,1.5,0.6c0.6,0,1.1-0.2,1.5-0.6
				c0.4-0.4,0.6-1,0.6-1.5C185.9,85.3,185,84.4,183.8,84.4L183.8,84.4z"/>
			<path class="st1" d="M144.7,85.2c-1.1,0-1.9,0.8-1.9,1.9c0,0.5,0.2,1,0.6,1.4s0.8,0.6,1.4,0.6s1-0.2,1.4-0.6s0.6-0.8,0.6-1.4
				c0-0.5-0.2-1-0.6-1.4C145.7,85.3,145.3,85.2,144.7,85.2L144.7,85.2z"/>
			<path class="st1" d="M121.6,86.3c-0.9,0-1.6,0.8-1.6,1.6c0,0.4,0.2,0.8,0.5,1.1c0.3,0.3,0.7,0.5,1.1,0.5c0.4,0,0.8-0.2,1.1-0.5
				c0.3-0.3,0.5-0.7,0.5-1.1C123.2,87,122.4,86.3,121.6,86.3L121.6,86.3z"/>
			<path class="st1" d="M195.4,88c-0.6,0-1.1,0.2-1.6,0.7c-0.4,0.4-0.7,1-0.7,1.6c0,0.6,0.2,1.1,0.7,1.6c0.4,0.4,1,0.7,1.6,0.7
				c0.6,0,1.1-0.2,1.6-0.7c0.4-0.4,0.7-1,0.7-1.6C197.6,89,196.6,88,195.4,88L195.4,88z"/>
			<path class="st1" d="M131.5,89.7c-0.5,0-1,0.2-1.3,0.5c-0.4,0.4-0.5,0.8-0.5,1.3c0,1,0.8,1.9,1.9,1.9c0.5,0,1-0.2,1.3-0.5
				c0.4-0.4,0.5-0.8,0.5-1.3c0-0.5-0.2-1-0.5-1.3C132.4,89.9,132,89.7,131.5,89.7L131.5,89.7z"/>
			<path class="st1" d="M166.2,91c-0.6,0-1.1,0.2-1.5,0.7c-0.4,0.4-0.7,1-0.7,1.5c0,1.2,1,2.2,2.2,2.2c1.2,0,2.2-1,2.2-2.2
				c0-0.6-0.2-1.1-0.7-1.5C167.3,91.2,166.8,91,166.2,91L166.2,91z"/>
			<path class="st1" d="M153.8,91.8c-0.6,0-1.1,0.2-1.5,0.6c-0.4,0.4-0.6,0.9-0.6,1.5c0,1.2,1,2.1,2.1,2.1c1.2,0,2.1-1,2.1-2.1
				C156,92.7,155,91.8,153.8,91.8L153.8,91.8z"/>
			<path class="st1" d="M178,92.3c-1.3,0-2.3,1-2.3,2.3s1,2.3,2.3,2.3c1.3,0,2.3-1,2.3-2.3c0-0.6-0.2-1.2-0.7-1.6
				C179.3,92.6,178.6,92.3,178,92.3L178,92.3z"/>
			<path class="st1" d="M205.8,93.4c-1.3,0-2.3,1-2.3,2.3s1,2.3,2.3,2.3c1.3,0,2.3-1,2.3-2.3S207.1,93.4,205.8,93.4L205.8,93.4z"/>
			<path class="st1" d="M141.3,94.5c-0.5,0-1.1,0.2-1.5,0.6c-0.4,0.4-0.6,0.9-0.6,1.5c0,1.1,0.9,2,2,2s2-0.9,2-2
				C143.3,95.5,142.4,94.5,141.3,94.5L141.3,94.5z"/>
			<path class="st1" d="M189,95.6c-0.6,0-1.2,0.3-1.7,0.7c-0.4,0.4-0.7,1.1-0.7,1.7c0,0.6,0.3,1.2,0.7,1.7c0.4,0.4,1.1,0.7,1.7,0.7
				c0.6,0,1.2-0.3,1.7-0.7c0.4-0.4,0.7-1.1,0.7-1.7c0-0.6-0.3-1.2-0.7-1.7C190.2,95.8,189.6,95.6,189,95.6L189,95.6z"/>
			<path class="st1" d="M118.6,96.4c-1,0-1.8,0.8-1.8,1.8s0.8,1.8,1.8,1.8c0.5,0,0.9-0.2,1.2-0.5c0.4-0.4,0.5-0.8,0.5-1.2
				c0-0.5-0.2-0.9-0.5-1.2C119.5,96.5,119.1,96.4,118.6,96.4L118.6,96.4z"/>
			<path class="st1" d="M128.9,99.4c-0.5,0-1,0.2-1.4,0.6c-0.4,0.4-0.6,0.9-0.6,1.4c0,1.1,0.9,2,2,2c1.1,0,2-0.9,2-2
				C130.9,100.3,130,99.4,128.9,99.4L128.9,99.4z"/>
			<path class="st1" d="M162.6,100.2c-1.3,0-2.3,1.1-2.3,2.3c0,1.3,1.1,2.3,2.3,2.3c1.3,0,2.3-1.1,2.3-2.3
				C165,101.3,163.9,100.2,162.6,100.2L162.6,100.2z"/>
			<path class="st1" d="M198.8,100.5c-1.3,0-2.5,1.1-2.5,2.5c0,1.3,1.1,2.5,2.5,2.5c1.3,0,2.5-1.1,2.5-2.5c0-0.7-0.3-1.3-0.7-1.7
				C200,100.8,199.4,100.5,198.8,100.5L198.8,100.5z"/>
			<path class="st1" d="M151,101.1c-1.2,0-2.3,1-2.3,2.3c0,1.2,1,2.3,2.3,2.3c1.2,0,2.3-1,2.3-2.3
				C153.3,102.1,152.3,101.1,151,101.1L151,101.1z"/>
			<path class="st1" d="M173.8,101.3c-1.3,0-2.5,1.1-2.5,2.5c0,1.3,1.1,2.5,2.5,2.5c1.3,0,2.5-1.1,2.5-2.5S175.1,101.3,173.8,101.3
				L173.8,101.3z"/>
			<path class="st1" d="M139.3,104.2c-0.6,0-1.1,0.2-1.5,0.6c-0.4,0.4-0.6,1-0.6,1.5c0,0.6,0.2,1.1,0.6,1.5c0.4,0.4,1,0.6,1.5,0.6
				c0.5,0,1.1-0.2,1.5-0.6c0.4-0.4,0.6-1,0.6-1.5C141.5,105.1,140.5,104.2,139.3,104.2L139.3,104.2z"/>
			<path class="st1" d="M184,104.3c-0.7,0-1.3,0.3-1.8,0.7c-0.5,0.5-0.7,1.1-0.7,1.8s0.3,1.3,0.7,1.8c0.5,0.5,1.1,0.7,1.8,0.7
				s1.3-0.3,1.8-0.7c0.5-0.5,0.7-1.1,0.7-1.8s-0.3-1.3-0.7-1.8C185.3,104.6,184.7,104.3,184,104.3L184,104.3z"/>
			<path class="st1" d="M193,109.3c-0.7,0-1.3,0.3-1.8,0.8c-0.5,0.5-0.8,1.1-0.8,1.8s0.3,1.3,0.8,1.8c0.5,0.5,1.1,0.8,1.8,0.8
				c0.7,0,1.3-0.3,1.8-0.8c0.5-0.5,0.8-1.1,0.8-1.8s-0.3-1.3-0.8-1.8C194.4,109.5,193.8,109.3,193,109.3L193,109.3z"/>
			<path class="st1" d="M127.8,109.3c-1.1,0-2.1,0.9-2.1,2.1c0,0.6,0.2,1.1,0.6,1.5c0.4,0.4,0.9,0.6,1.5,0.6c0.6,0,1.1-0.2,1.5-0.6
				c0.4-0.4,0.6-0.9,0.6-1.5C129.9,110.2,129,109.3,127.8,109.3L127.8,109.3z"/>
			<path class="st1" d="M160.8,110c-1.4,0-2.5,1.1-2.5,2.5s1.1,2.5,2.5,2.5s2.5-1.1,2.5-2.5c0-0.7-0.3-1.3-0.7-1.7
				C162,110.3,161.5,110,160.8,110L160.8,110z"/>
			<path class="st1" d="M149.9,111c-1.3,0-2.4,1.1-2.4,2.4c0,1.3,1.1,2.4,2.4,2.4c0.6,0,1.2-0.3,1.7-0.7c0.4-0.4,0.7-1.1,0.7-1.7
				s-0.3-1.2-0.7-1.7C151.2,111.2,150.6,111,149.9,111L149.9,111z"/>
			<path class="st1" d="M171.2,111.3c-1.4,0-2.5,1.1-2.5,2.5c0,1.4,1.1,2.5,2.5,2.5c0.7,0,1.3-0.3,1.8-0.8c0.5-0.5,0.8-1.1,0.8-1.8
				C173.7,112.4,172.6,111.3,171.2,111.3L171.2,111.3z"/>
			<path class="st1" d="M139,114c-0.6,0-1.2,0.2-1.6,0.7c-0.4,0.4-0.7,1-0.7,1.6c0,0.6,0.2,1.2,0.7,1.6c0.4,0.4,1,0.7,1.6,0.7
				c1.3,0,2.3-1,2.3-2.3S140.2,114,139,114L139,114z"/>
			<path class="st1" d="M180.8,114.6c-0.7,0-1.4,0.3-1.9,0.8c-0.5,0.5-0.8,1.1-0.8,1.9c0,0.7,0.3,1.4,0.8,1.9
				c0.5,0.5,1.1,0.8,1.9,0.8s1.4-0.3,1.9-0.8c0.5-0.5,0.8-1.1,0.8-1.9C183.4,115.8,182.2,114.6,180.8,114.6L180.8,114.6z"/>
			<path class="st1" d="M213.5,114.9c-0.7,0-1.3,0.3-1.9,0.8c-0.5,0.5-0.8,1.1-0.8,1.8s0.3,1.3,0.8,1.9c0.5,0.5,1.1,0.8,1.9,0.8
				c1.4,0,2.6-1.1,2.6-2.6C216.1,116.1,214.9,114.9,213.5,114.9L213.5,114.9z"/>
			<path class="st1" d="M200.6,115.9c-0.7,0-1.4,0.3-1.9,0.8c-0.5,0.5-0.8,1.1-0.8,1.9c0,0.7,0.3,1.4,0.8,1.9
				c0.5,0.5,1.1,0.8,1.9,0.8c0.7,0,1.4-0.3,1.9-0.8c0.5-0.5,0.8-1.1,0.8-1.9c0-0.7-0.3-1.4-0.8-1.9
				C201.9,116.2,201.2,115.9,200.6,115.9L200.6,115.9z"/>
			<path class="st1" d="M128.3,119.1c-1.2,0-2.2,1-2.2,2.2c0,0.6,0.2,1.1,0.7,1.6c0.4,0.4,1,0.7,1.6,0.7c0.6,0,1.1-0.2,1.6-0.7
				c0.4-0.4,0.7-1,0.7-1.6c0-0.6-0.2-1.1-0.7-1.6C129.4,119.3,128.9,119.1,128.3,119.1L128.3,119.1z"/>
			<path class="st1" d="M189,120c-1.5,0-2.7,1.2-2.7,2.7c0,0.7,0.3,1.4,0.8,1.9c0.5,0.5,1.2,0.8,1.9,0.8s1.4-0.3,1.9-0.8
				c0.5-0.5,0.8-1.2,0.8-1.9C191.7,121.2,190.5,120,189,120L189,120z"/>
			<path class="st1" d="M160.9,120.6c-0.7,0-1.3,0.3-1.8,0.8c-0.5,0.5-0.8,1.1-0.8,1.8s0.3,1.3,0.8,1.8c0.5,0.5,1.1,0.8,1.8,0.8
				c0.7,0,1.3-0.3,1.8-0.8c0.5-0.5,0.8-1.1,0.8-1.8s-0.3-1.3-0.8-1.8C162.3,120.9,161.6,120.6,160.9,120.6L160.9,120.6z"/>
			<path class="st1" d="M150.7,121.1c-0.7,0-1.3,0.3-1.8,0.8c-0.5,0.5-0.8,1.1-0.8,1.8s0.3,1.3,0.8,1.8c0.5,0.5,1.1,0.8,1.8,0.8
				s1.3-0.3,1.8-0.8c0.5-0.5,0.8-1.1,0.8-1.8s-0.3-1.3-0.8-1.8C152,121.4,151.4,121.1,150.7,121.1L150.7,121.1z"/>
			<path class="st1" d="M170.8,122.4c-1.5,0-2.7,1.2-2.7,2.7c0,0.7,0.3,1.4,0.8,1.9c0.5,0.5,1.2,0.8,1.9,0.8s1.4-0.3,1.9-0.8
				c0.5-0.5,0.8-1.2,0.8-1.9C173.4,123.6,172.2,122.4,170.8,122.4L170.8,122.4z"/>
			<path class="st1" d="M140.4,123.9c-0.7,0-1.3,0.3-1.7,0.7c-0.4,0.4-0.7,1.1-0.7,1.7c0,0.7,0.3,1.3,0.7,1.7
				c0.4,0.4,1.1,0.7,1.7,0.7c0.7,0,1.3-0.3,1.7-0.7c0.4-0.4,0.7-1.1,0.7-1.7c0-0.7-0.3-1.3-0.7-1.7
				C141.7,124.1,141,123.9,140.4,123.9L140.4,123.9z"/>
			<path class="st1" d="M206,124.1c-1.5,0-2.7,1.2-2.7,2.7c0,0.7,0.3,1.4,0.8,1.9c0.5,0.5,1.2,0.8,1.9,0.8c0.7,0,1.4-0.3,1.9-0.8
				c0.5-0.5,0.8-1.2,0.8-1.9C208.8,125.4,207.5,124.1,206,124.1L206,124.1z"/>
			<path class="st1" d="M179.7,126.7c-0.7,0-1.4,0.3-1.9,0.8c-0.5,0.5-0.8,1.2-0.8,1.9c0,0.7,0.3,1.4,0.8,1.9
				c0.5,0.5,1.2,0.8,1.9,0.8c0.7,0,1.4-0.3,1.9-0.8c0.5-0.5,0.8-1.2,0.8-1.9c0-0.7-0.3-1.4-0.8-1.9
				C181.1,127,180.4,126.7,179.7,126.7L179.7,126.7z"/>
			<path class="st1" d="M195.5,127.5c-0.8,0-1.5,0.3-1.9,0.8c-0.5,0.5-0.8,1.2-0.8,1.9c0,1.5,1.2,2.8,2.8,2.8c0.8,0,1.5-0.3,1.9-0.8
				c0.5-0.5,0.8-1.2,0.8-1.9c0-0.8-0.3-1.5-0.8-1.9C197,127.9,196.3,127.5,195.5,127.5L195.5,127.5z"/>
			<path class="st1" d="M130.4,128.7c-0.6,0-1.2,0.3-1.7,0.7c-0.4,0.4-0.7,1.1-0.7,1.7c0,0.6,0.3,1.2,0.7,1.7
				c0.4,0.4,1.1,0.7,1.7,0.7s1.2-0.3,1.7-0.7c0.4-0.4,0.7-1,0.7-1.7c0-0.6-0.3-1.2-0.7-1.7C131.6,129,131,128.7,130.4,128.7
				L130.4,128.7z"/>
			<path class="st1" d="M153.7,131.5c-0.7,0-1.4,0.3-1.9,0.8c-0.5,0.5-0.8,1.1-0.8,1.9c0,0.7,0.3,1.4,0.8,1.9
				c0.5,0.5,1.1,0.8,1.9,0.8c0.7,0,1.4-0.3,1.9-0.8c0.5-0.5,0.8-1.1,0.8-1.9C156.3,132.7,155.2,131.5,153.7,131.5L153.7,131.5z"/>
			<path class="st1" d="M163.6,131.9c-0.7,0-1.4,0.3-1.9,0.8c-0.5,0.5-0.8,1.2-0.8,1.9c0,0.7,0.3,1.4,0.8,1.9
				c0.5,0.5,1.2,0.8,1.9,0.8c1.5,0,2.7-1.2,2.7-2.7C166.3,133.2,165.1,131.9,163.6,131.9L163.6,131.9z"/>
			<path class="st1" d="M143.8,133.6c-0.7,0-1.3,0.3-1.8,0.8c-0.5,0.5-0.8,1.1-0.8,1.8c0,0.7,0.3,1.3,0.8,1.8
				c0.5,0.5,1.1,0.8,1.8,0.8c0.7,0,1.3-0.3,1.8-0.8c0.5-0.5,0.8-1.1,0.8-1.8C146.4,134.8,145.3,133.6,143.8,133.6L143.8,133.6z"/>
			<path class="st1" d="M187.3,133.8c-1.5,0-2.8,1.3-2.8,2.8c0,0.8,0.3,1.5,0.8,2c0.5,0.5,1.2,0.8,2,0.8c0.8,0,1.5-0.3,2-0.8
				c0.5-0.5,0.8-1.2,0.8-2C190.1,135,188.8,133.8,187.3,133.8L187.3,133.8z"/>
			<path class="st1" d="M209,133.8c-0.8,0-1.5,0.3-2,0.8c-0.5,0.5-0.8,1.2-0.8,2c0,0.8,0.3,1.5,0.8,2c0.5,0.5,1.2,0.8,2,0.8
				s1.5-0.3,2-0.8c0.5-0.5,0.8-1.2,0.8-2c0-0.8-0.3-1.5-0.8-2C210.5,134.1,209.7,133.8,209,133.8L209,133.8z"/>
			<path class="st1" d="M173.2,135.2c-0.8,0-1.5,0.3-2,0.8c-0.5,0.5-0.8,1.2-0.8,2c0,0.7,0.3,1.5,0.8,2c0.5,0.5,1.2,0.8,2,0.8
				c1.5,0,2.8-1.2,2.8-2.8c0-0.8-0.3-1.5-0.8-2C174.6,135.5,173.9,135.2,173.2,135.2L173.2,135.2z"/>
			<path class="st1" d="M199.7,137.6c-0.8,0-1.5,0.3-2,0.8c-0.5,0.5-0.8,1.2-0.8,2c0,1.6,1.3,2.8,2.8,2.8c1.6,0,2.8-1.3,2.8-2.8
				c0-0.8-0.3-1.5-0.8-2C201.2,137.9,200.4,137.6,199.7,137.6L199.7,137.6z"/>
			<path class="st1" d="M134.3,138c-1.4,0-2.5,1.1-2.5,2.5c0,0.7,0.3,1.3,0.7,1.8c0.5,0.5,1.1,0.7,1.8,0.7s1.3-0.3,1.8-0.7
				c0.5-0.5,0.7-1.1,0.7-1.8c0-0.7-0.3-1.3-0.7-1.8C135.6,138.3,135,138,134.3,138L134.3,138z"/>
			<path class="st1" d="M182.1,142.2c-0.8,0-1.5,0.3-2,0.8c-0.5,0.5-0.8,1.3-0.8,2c0,1.6,1.3,2.9,2.9,2.9s2.9-1.3,2.9-2.9
				c0-0.8-0.3-1.5-0.8-2C183.6,142.5,182.8,142.2,182.1,142.2L182.1,142.2z"/>
			<path class="st1" d="M159.8,142.4c-1.5,0-2.7,1.2-2.7,2.7c0,1.5,1.2,2.7,2.7,2.7c1.5,0,2.7-1.2,2.7-2.7c0-0.8-0.3-1.4-0.8-1.9
				C161.2,142.7,160.5,142.4,159.8,142.4L159.8,142.4z"/>
			<path class="st1" d="M149.8,143.3c-0.7,0-1.4,0.3-1.9,0.8c-0.5,0.5-0.8,1.2-0.8,1.9s0.3,1.4,0.8,1.9c0.5,0.5,1.2,0.8,1.9,0.8
				c0.7,0,1.4-0.3,1.9-0.8c0.5-0.5,0.8-1.2,0.8-1.9c0-0.7-0.3-1.4-0.8-1.9C151.2,143.6,150.5,143.3,149.8,143.3L149.8,143.3z"/>
			<path class="st1" d="M125.6,144.4c-0.6,0-1.2,0.3-1.7,0.7c-0.4,0.4-0.7,1.1-0.7,1.7c0,0.6,0.3,1.2,0.7,1.7
				c0.4,0.4,1.1,0.7,1.7,0.7c1.3,0,2.4-1.1,2.4-2.4S127,144.4,125.6,144.4L125.6,144.4z"/>
			<path class="st1" d="M192.8,144.8c-1.6,0-2.9,1.3-2.9,2.9c0,0.8,0.3,1.5,0.8,2c0.5,0.5,1.3,0.8,2,0.8c1.6,0,2.9-1.3,2.9-2.9
				C195.7,146.1,194.4,144.8,192.8,144.8L192.8,144.8z"/>
			<path class="st1" d="M170.2,144.9c-0.8,0-1.5,0.3-2,0.8c-0.5,0.5-0.8,1.2-0.8,2c0,0.8,0.3,1.5,0.8,2c0.5,0.5,1.2,0.8,2,0.8
				c1.5,0,2.8-1.3,2.8-2.8C173,146.1,171.7,144.9,170.2,144.9L170.2,144.9z"/>
			<path class="st1" d="M208.4,145.4c-1.6,0-2.9,1.3-2.9,2.9c0,0.8,0.3,1.5,0.8,2s1.3,0.8,2,0.8c1.6,0,2.9-1.3,2.9-2.9
				C211.3,146.7,210,145.4,208.4,145.4L208.4,145.4z"/>
			<path class="st1" d="M140.4,146.8c-0.7,0-1.4,0.3-1.9,0.8c-0.5,0.5-0.8,1.1-0.8,1.9s0.3,1.4,0.8,1.9c0.5,0.5,1.1,0.8,1.9,0.8
				c0.7,0,1.4-0.3,1.9-0.8c0.5-0.5,0.8-1.1,0.8-1.9s-0.3-1.4-0.8-1.9C141.8,147.1,141.1,146.8,140.4,146.8L140.4,146.8z"/>
			<path class="st1" d="M199.9,151.8c-1.6,0-2.9,1.3-2.9,2.9c0,0.8,0.3,1.5,0.8,2.1c0.5,0.5,1.3,0.8,2.1,0.8s1.5-0.3,2.1-0.8
				c0.5-0.5,0.8-1.3,0.8-2.1c0-0.8-0.3-1.5-0.8-2.1C201.4,152.1,200.6,151.8,199.9,151.8L199.9,151.8z"/>
			<path class="st1" d="M181.2,152.4c-0.8,0-1.5,0.3-2.1,0.8c-0.5,0.5-0.8,1.3-0.8,2.1c0,1.6,1.3,2.9,2.9,2.9c1.6,0,2.9-1.3,2.9-2.9
				c0-0.8-0.3-1.5-0.8-2.1C182.7,152.7,182,152.4,181.2,152.4L181.2,152.4z"/>
			<path class="st1" d="M132,152.5c-0.7,0-1.3,0.3-1.8,0.8c-0.5,0.5-0.8,1.1-0.8,1.8c0,0.7,0.3,1.3,0.8,1.8c0.5,0.5,1.1,0.8,1.8,0.8
				s1.3-0.3,1.8-0.8c0.5-0.5,0.8-1.1,0.8-1.8c0-0.7-0.3-1.3-0.8-1.8C133.3,152.8,132.6,152.5,132,152.5L132,152.5z"/>
			<path class="st1" d="M159.4,152.9c-1.5,0-2.8,1.2-2.8,2.8c0,0.8,0.3,1.5,0.8,2c0.5,0.5,1.2,0.8,2,0.8c0.8,0,1.5-0.3,2-0.8
				c0.5-0.5,0.8-1.2,0.8-2C162.2,154.2,160.9,152.9,159.4,152.9L159.4,152.9z"/>
			<path class="st1" d="M171.1,154.7c-1.6,0-2.9,1.3-2.9,2.9c0,0.8,0.3,1.5,0.8,2c0.5,0.5,1.3,0.8,2,0.8s1.5-0.3,2-0.8
				c0.5-0.5,0.8-1.3,0.8-2s-0.3-1.5-0.8-2C172.7,155,171.9,154.7,171.1,154.7L171.1,154.7z"/>
			<path class="st1" d="M149.3,154.9c-1.5,0-2.7,1.2-2.7,2.7c0,0.7,0.3,1.4,0.8,1.9c0.5,0.5,1.2,0.8,1.9,0.8c0.8,0,1.4-0.3,1.9-0.8
				c0.5-0.5,0.8-1.2,0.8-1.9C152,156.1,150.8,154.9,149.3,154.9L149.3,154.9z"/>
			<path class="st1" d="M212.2,155.3c-0.8,0-1.5,0.3-2,0.8c-0.5,0.5-0.8,1.3-0.8,2c0,1.6,1.3,2.9,2.9,2.9c1.6,0,2.9-1.3,2.9-2.9
				c0-0.8-0.3-1.5-0.8-2C213.7,155.6,212.9,155.3,212.2,155.3L212.2,155.3z"/>
			<path class="st1" d="M190.2,156.5c-1.6,0-3,1.3-3,3s1.3,3,3,3c1.6,0,3-1.3,3-3C193.2,157.9,191.8,156.5,190.2,156.5L190.2,156.5z
				"/>
			<path class="st1" d="M140.5,159.6c-1.5,0-2.7,1.2-2.7,2.7c0,1.5,1.2,2.7,2.7,2.7c0.7,0,1.4-0.3,1.9-0.8c0.5-0.5,0.8-1.1,0.8-1.9
				c0-0.7-0.3-1.4-0.8-1.9C141.8,159.9,141.2,159.6,140.5,159.6L140.5,159.6z"/>
			<path class="st1" d="M124.6,160.2c-0.7,0-1.3,0.3-1.7,0.7c-0.4,0.4-0.7,1.1-0.7,1.7c0,0.7,0.3,1.3,0.7,1.7
				c0.4,0.4,1.1,0.7,1.7,0.7s1.3-0.3,1.7-0.7s0.7-1.1,0.7-1.7c0-0.7-0.3-1.3-0.7-1.7C125.9,160.4,125.3,160.2,124.6,160.2
				L124.6,160.2z"/>
			<path class="st1" d="M162.6,162.4c-0.8,0-1.5,0.3-2,0.8s-0.8,1.3-0.8,2s0.3,1.5,0.8,2s1.3,0.8,2,0.8s1.5-0.3,2-0.8
				c0.5-0.5,0.8-1.3,0.8-2s-0.3-1.5-0.8-2C164.1,162.6,163.3,162.4,162.6,162.4L162.6,162.4z"/>
			<path class="st1" d="M200.2,162.4c-1.6,0-3,1.3-3,3c0,1.6,1.3,3,3,3c0.8,0,1.5-0.3,2.1-0.9c0.6-0.6,0.9-1.3,0.9-2.1
				C203.2,163.7,201.9,162.4,200.2,162.4L200.2,162.4z"/>
			<path class="st1" d="M111.6,162.6c-0.6,0-1.1,0.2-1.6,0.7c-0.4,0.4-0.7,1-0.7,1.6c0,1.2,1,2.3,2.3,2.3c1.2,0,2.3-1,2.3-2.3
				C113.8,163.6,112.8,162.6,111.6,162.6L111.6,162.6z"/>
			<path class="st1" d="M177.5,163.8c-0.8,0-1.5,0.3-2.1,0.8c-0.5,0.5-0.8,1.3-0.8,2.1c0,1.6,1.3,2.9,2.9,2.9c1.6,0,2.9-1.3,2.9-2.9
				c0-0.8-0.3-1.5-0.8-2.1C179.1,164.1,178.3,163.8,177.5,163.8L177.5,163.8z"/>
			<path class="st1" d="M209.7,164.8c-0.8,0-1.5,0.3-2.1,0.8c-0.5,0.5-0.8,1.3-0.8,2.1s0.3,1.5,0.8,2.1s1.3,0.8,2.1,0.8
				c1.6,0,2.9-1.3,2.9-2.9S211.3,164.8,209.7,164.8L209.7,164.8z"/>
			<path class="st1" d="M151.9,165.5c-1.5,0-2.8,1.2-2.8,2.8c0,0.8,0.3,1.5,0.8,1.9c0.5,0.5,1.2,0.8,1.9,0.8c1.5,0,2.8-1.2,2.8-2.8
				S153.5,165.5,151.9,165.5L151.9,165.5z"/>
			<path class="st1" d="M100.3,166.5c-0.5,0-1.1,0.2-1.5,0.6c-0.4,0.4-0.6,0.9-0.6,1.5c0,1.1,0.9,2,2,2c1.1,0,2-0.9,2-2
				c0-0.5-0.2-1.1-0.6-1.5C101.4,166.7,100.9,166.5,100.3,166.5L100.3,166.5z"/>
			<path class="st1" d="M133.1,166.5c-0.7,0-1.3,0.3-1.8,0.8c-0.5,0.5-0.8,1.1-0.8,1.8c0,1.4,1.1,2.6,2.6,2.6c0.7,0,1.3-0.3,1.8-0.8
				c0.5-0.5,0.8-1.1,0.8-1.8c0-0.7-0.3-1.3-0.8-1.8C134.4,166.7,133.8,166.5,133.1,166.5L133.1,166.5z"/>
			<path class="st1" d="M189.6,166.5c-1.6,0-3,1.3-3,3c0,1.6,1.3,3,3,3c1.6,0,3-1.3,3-3C192.6,167.8,191.3,166.5,189.6,166.5
				L189.6,166.5z"/>
			<path class="st1" d="M220.9,167c-0.8,0-1.5,0.3-2,0.8c-0.5,0.5-0.8,1.3-0.8,2s0.3,1.5,0.8,2c0.5,0.5,1.3,0.8,2,0.8
				c1.6,0,2.9-1.3,2.9-2.9C223.8,168.2,222.5,167,220.9,167L220.9,167z"/>
			<path class="st1" d="M237.9,168.5c-0.8,0-1.4,0.3-1.9,0.8c-0.5,0.5-0.8,1.2-0.8,1.9c0,0.8,0.3,1.4,0.8,1.9
				c0.5,0.5,1.2,0.8,1.9,0.8c0.8,0,1.4-0.3,1.9-0.8c0.5-0.5,0.8-1.2,0.8-1.9c0-0.8-0.3-1.4-0.8-1.9
				C239.3,168.8,238.7,168.5,237.9,168.5L237.9,168.5z"/>
			<path class="st1" d="M118.7,169.5c-0.6,0-1.2,0.3-1.7,0.7c-0.4,0.4-0.7,1.1-0.7,1.7c0,0.6,0.3,1.2,0.7,1.7
				c0.4,0.4,1.1,0.7,1.7,0.7s1.2-0.3,1.7-0.7c0.4-0.4,0.7-1.1,0.7-1.7c0-0.6-0.3-1.2-0.7-1.7C120,169.7,119.4,169.5,118.7,169.5
				L118.7,169.5z"/>
			<path class="st1" d="M169.6,169.6c-1.6,0-2.9,1.3-2.9,2.9c0,1.6,1.3,2.9,2.9,2.9c0.8,0,1.5-0.3,2-0.8s0.8-1.3,0.8-2
				s-0.3-1.5-0.8-2C171.1,169.9,170.3,169.6,169.6,169.6L169.6,169.6z"/>
			<path class="st1" d="M143.6,171.2c-0.7,0-1.4,0.3-1.9,0.8c-0.5,0.5-0.8,1.2-0.8,1.9c0,0.7,0.3,1.4,0.8,1.9
				c0.5,0.5,1.2,0.8,1.9,0.8s1.4-0.3,1.9-0.8c0.5-0.5,0.8-1.2,0.8-1.9s-0.3-1.4-0.8-1.9C145.1,171.6,144.4,171.2,143.6,171.2
				L143.6,171.2z"/>
			<path class="st1" d="M182.3,172.6c-0.8,0-1.5,0.3-2.1,0.9c-0.6,0.6-0.9,1.3-0.9,2.1c0,1.6,1.3,3,3,3c1.6,0,3-1.3,3-3
				C185.3,173.9,183.9,172.6,182.3,172.6L182.3,172.6z"/>
			<path class="st1" d="M249.9,172.6c-1.5,0-2.7,1.2-2.7,2.7c0,1.5,1.2,2.7,2.7,2.7c0.7,0,1.4-0.3,1.9-0.8c0.5-0.5,0.8-1.1,0.8-1.9
				s-0.3-1.4-0.8-1.9C251.3,172.9,250.6,172.6,249.9,172.6L249.9,172.6z"/>
			<path class="st1" d="M228.4,173.5c-0.8,0-1.5,0.3-2,0.8c-0.5,0.5-0.8,1.2-0.8,2s0.3,1.5,0.8,2c0.5,0.5,1.2,0.8,2,0.8
				c0.8,0,1.5-0.3,2-0.8c0.5-0.5,0.8-1.2,0.8-2s-0.3-1.5-0.8-2C229.9,173.8,229.2,173.5,228.4,173.5L228.4,173.5z"/>
			<path class="st1" d="M106.9,173.9c-1.2,0-2.2,1-2.2,2.2c0,1.2,1,2.2,2.2,2.2c0.6,0,1.1-0.2,1.5-0.6c0.4-0.4,0.6-1,0.6-1.5
				C109,174.8,108.1,173.9,106.9,173.9L106.9,173.9z"/>
			<path class="st1" d="M157.5,174.1c-1.5,0-2.8,1.3-2.8,2.8s1.3,2.8,2.8,2.8s2.8-1.3,2.8-2.8C160.4,175.3,159.2,174.1,157.5,174.1
				L157.5,174.1z"/>
			<path class="st1" d="M127.3,175.1c-0.7,0-1.3,0.3-1.8,0.8c-0.5,0.5-0.8,1.1-0.8,1.8c0,0.7,0.3,1.3,0.8,1.8
				c0.5,0.5,1.1,0.8,1.8,0.8c0.7,0,1.3-0.3,1.8-0.8c0.5-0.5,0.8-1.1,0.8-1.8C129.7,176.2,128.6,175.1,127.3,175.1L127.3,175.1z"/>
			<path class="st1" d="M214.9,175.2c-0.8,0-1.5,0.3-2.1,0.8c-0.5,0.5-0.8,1.3-0.8,2.1s0.3,1.5,0.8,2.1c0.5,0.5,1.3,0.8,2.1,0.8
				s1.5-0.3,2.1-0.8c0.5-0.5,0.8-1.3,0.8-2.1s-0.3-1.5-0.8-2.1C216.4,175.5,215.6,175.2,214.9,175.2L214.9,175.2z"/>
			<path class="st1" d="M205.2,177.7c-0.8,0-1.5,0.3-2.1,0.9c-0.5,0.5-0.9,1.3-0.9,2.1s0.3,1.5,0.9,2.1c0.5,0.5,1.3,0.9,2.1,0.9
				c1.6,0,3-1.3,3-3C208.1,179,206.8,177.7,205.2,177.7L205.2,177.7z"/>
			<path class="st1" d="M259.3,178.5c-1.4,0-2.5,1.1-2.5,2.5c0,1.4,1.1,2.5,2.5,2.5c0.7,0,1.3-0.3,1.8-0.8c0.5-0.5,0.8-1.1,0.8-1.8
				c0-0.7-0.3-1.3-0.8-1.8C260.6,178.8,260,178.5,259.3,178.5L259.3,178.5z"/>
			<path class="st1" d="M242.2,178.8c-0.7,0-1.4,0.3-1.9,0.8c-0.5,0.5-0.8,1.2-0.8,1.9c0,0.7,0.3,1.4,0.8,1.9
				c0.5,0.5,1.2,0.8,1.9,0.8c0.7,0,1.4-0.3,1.9-0.8c0.5-0.5,0.8-1.2,0.8-1.9s-0.3-1.4-0.8-1.9C243.6,179.1,243,178.8,242.2,178.8
				L242.2,178.8z"/>
			<path class="st1" d="M194.7,178.9c-0.8,0-1.5,0.3-2.1,0.9c-0.6,0.6-0.9,1.3-0.9,2.1c0,0.8,0.3,1.5,0.9,2.1
				c0.6,0.6,1.3,0.9,2.1,0.9c1.6,0,3-1.3,3-3c0-0.8-0.3-1.5-0.9-2.1C196.2,179.2,195.5,178.9,194.7,178.9L194.7,178.9z"/>
			<path class="st1" d="M137.3,179c-1.5,0-2.6,1.2-2.6,2.6c0,1.5,1.2,2.6,2.6,2.6c0.7,0,1.4-0.3,1.9-0.8c0.5-0.5,0.8-1.1,0.8-1.9
				c0-0.7-0.3-1.4-0.8-1.9C138.7,179.3,138.1,179,137.3,179L137.3,179z"/>
			<path class="st1" d="M165.7,179.6c-0.8,0-1.5,0.3-2,0.8c-0.5,0.5-0.8,1.3-0.8,2s0.3,1.5,0.8,2c0.5,0.5,1.3,0.8,2,0.8
				c1.6,0,2.9-1.3,2.9-2.9S167.3,179.6,165.7,179.6L165.7,179.6z"/>
			<path class="st1" d="M114.5,180.1c-0.6,0-1.2,0.2-1.6,0.7c-0.4,0.4-0.7,1-0.7,1.6c0,0.6,0.2,1.2,0.7,1.6c0.4,0.4,1,0.7,1.6,0.7
				c0.6,0,1.2-0.2,1.6-0.7c0.4-0.4,0.7-1,0.7-1.6c0-0.6-0.2-1.2-0.7-1.6C115.7,180.4,115.1,180.1,114.5,180.1L114.5,180.1z"/>
			<path class="st1" d="M176.2,180.9c-1.6,0-2.9,1.3-2.9,2.9c0,1.6,1.3,2.9,2.9,2.9c1.6,0,2.9-1.3,2.9-2.9
				C179.1,182.2,177.8,180.9,176.2,180.9L176.2,180.9z"/>
			<path class="st1" d="M149.6,180.9c-1.5,0-2.7,1.2-2.7,2.7s1.2,2.7,2.7,2.7s2.7-1.2,2.7-2.7S151.1,180.9,149.6,180.9L149.6,180.9z
				"/>
			<path class="st1" d="M232.8,182.7c-0.8,0-1.5,0.3-2,0.8c-0.5,0.5-0.8,1.2-0.8,2c0,0.8,0.3,1.5,0.8,2c0.5,0.5,1.2,0.8,2,0.8
				c0.8,0,1.5-0.3,2-0.8c0.5-0.5,0.8-1.2,0.8-2C235.7,183.9,234.4,182.7,232.8,182.7L232.8,182.7z"/>
			<path class="st1" d="M221.5,183.3c-1.6,0-2.9,1.3-2.9,2.9c0,1.6,1.3,2.9,2.9,2.9c0.8,0,1.5-0.3,2-0.8s0.8-1.3,0.8-2
				s-0.3-1.5-0.8-2C223,183.6,222.2,183.3,221.5,183.3L221.5,183.3z"/>
			<path class="st1" d="M186.7,184.5c-1.6,0-2.9,1.3-2.9,2.9c0,1.6,1.3,2.9,2.9,2.9c1.6,0,2.9-1.3,2.9-2.9
				C189.7,185.8,188.4,184.5,186.7,184.5L186.7,184.5z"/>
			<path class="st1" d="M123.2,185c-0.7,0-1.2,0.3-1.7,0.7c-0.4,0.4-0.7,1.1-0.7,1.7c0,1.3,1.1,2.5,2.5,2.5c0.6,0,1.2-0.3,1.7-0.7
				c0.4-0.4,0.7-1.1,0.7-1.7c0-0.7-0.3-1.2-0.7-1.7C124.4,185.3,123.8,185,123.2,185L123.2,185z"/>
			<path class="st1" d="M252,185.6c-1.4,0-2.6,1.1-2.6,2.6c0,1.4,1.1,2.6,2.6,2.6c1.4,0,2.6-1.1,2.6-2.6
				C254.6,186.7,253.5,185.6,252,185.6L252,185.6z"/>
			<path class="st1" d="M266.9,185.7c-0.6,0-1.2,0.3-1.7,0.7s-0.7,1.1-0.7,1.7c0,1.3,1.1,2.4,2.4,2.4s2.4-1.1,2.4-2.4
				c0-0.6-0.3-1.2-0.7-1.7C268.1,185.9,267.5,185.7,266.9,185.7L266.9,185.7z"/>
			<path class="st1" d="M103.9,186.2c-1.1,0-2.1,0.9-2.1,2.1c0,0.6,0.2,1.1,0.6,1.5c0.4,0.4,0.9,0.6,1.5,0.6c1.1,0,2.1-0.9,2.1-2.1
				C106,187.2,105,186.2,103.9,186.2L103.9,186.2z"/>
			<path class="st1" d="M201.9,187.6c-0.8,0-1.5,0.3-2.1,0.8c-0.5,0.5-0.8,1.3-0.8,2.1c0,1.6,1.3,2.9,2.9,2.9c0.8,0,1.5-0.3,2.1-0.8
				c0.5-0.5,0.8-1.3,0.8-2.1s-0.3-1.5-0.8-2.1C203.5,187.9,202.7,187.6,201.9,187.6L201.9,187.6z"/>
			<path class="st1" d="M157.6,187.9c-1.5,0-2.8,1.2-2.8,2.8s1.2,2.8,2.8,2.8s2.8-1.2,2.8-2.8c0-0.8-0.3-1.5-0.8-2
				C159.1,188.2,158.4,187.9,157.6,187.9L157.6,187.9z"/>
			<path class="st1" d="M133.1,188.3c-0.7,0-1.3,0.3-1.8,0.8c-0.5,0.5-0.8,1.1-0.8,1.8c0,0.7,0.3,1.3,0.8,1.8
				c0.5,0.5,1.1,0.8,1.8,0.8c0.7,0,1.3-0.3,1.8-0.8c0.5-0.5,0.8-1.1,0.8-1.8c0-0.7-0.3-1.3-0.8-1.8
				C134.4,188.5,133.7,188.3,133.1,188.3L133.1,188.3z"/>
			<path class="st1" d="M211.8,188.3c-0.8,0-1.5,0.3-2,0.8c-0.5,0.5-0.8,1.3-0.8,2s0.3,1.5,0.8,2c0.5,0.5,1.3,0.8,2,0.8
				c0.8,0,1.5-0.3,2-0.8s0.8-1.3,0.8-2s-0.3-1.5-0.8-2C213.3,188.7,212.6,188.3,211.8,188.3L211.8,188.3z"/>
			<path class="st1" d="M144.3,189.5c-0.7,0-1.4,0.3-1.9,0.8c-0.5,0.5-0.8,1.2-0.8,1.9c0,1.5,1.2,2.7,2.7,2.7c0.7,0,1.4-0.3,1.9-0.8
				c0.5-0.5,0.8-1.2,0.8-1.9s-0.3-1.4-0.8-1.9C145.7,189.8,145,189.5,144.3,189.5L144.3,189.5z"/>
			<path class="st1" d="M243.5,190.7c-0.7,0-1.4,0.3-1.9,0.8c-0.5,0.5-0.8,1.2-0.8,1.9c0,0.7,0.3,1.4,0.8,1.9
				c0.5,0.5,1.2,0.8,1.9,0.8c1.5,0,2.7-1.2,2.7-2.7C246.2,191.9,245,190.7,243.5,190.7L243.5,190.7z"/>
			<path class="st1" d="M177,191c-0.8,0-1.5,0.3-2,0.8c-0.5,0.5-0.8,1.3-0.8,2c0,1.6,1.3,2.9,2.9,2.9s2.9-1.3,2.9-2.9
				S178.6,191,177,191L177,191z"/>
			<path class="st1" d="M167,191.5c-1.6,0-2.8,1.3-2.8,2.8c0,1.6,1.3,2.8,2.8,2.8c1.6,0,2.8-1.3,2.8-2.8
				C169.9,192.8,168.6,191.5,167,191.5L167,191.5z"/>
			<path class="st1" d="M112,191.8c-1.2,0-2.2,1-2.2,2.2c0,0.6,0.2,1.1,0.7,1.5c0.4,0.4,1,0.7,1.5,0.7c0.6,0,1.1-0.2,1.5-0.7
				c0.4-0.4,0.7-1,0.7-1.5C114.2,192.8,113.2,191.8,112,191.8L112,191.8z"/>
			<path class="st1" d="M223.5,193.1c-0.8,0-1.5,0.3-2,0.8c-0.5,0.5-0.8,1.2-0.8,2s0.3,1.5,0.8,2c0.5,0.5,1.2,0.8,2,0.8
				c0.8,0,1.5-0.3,2-0.8c0.5-0.5,0.8-1.2,0.8-2s-0.3-1.5-0.8-2C224.9,193.4,224.2,193.1,223.5,193.1L223.5,193.1z"/>
			<path class="st1" d="M94.9,193.1c-1.1,0-1.9,0.8-1.9,1.9c0,1.1,0.8,1.9,1.9,1.9s1.9-0.8,1.9-1.9C96.8,194,96,193.1,94.9,193.1
				L94.9,193.1z"/>
			<path class="st1" d="M191,193.4c-1.6,0-2.9,1.3-2.9,2.9c0,1.6,1.3,2.9,2.9,2.9c0.8,0,1.5-0.3,2.1-0.8c0.5-0.5,0.8-1.3,0.8-2.1
				c0-0.8-0.3-1.5-0.8-2.1C192.5,193.7,191.8,193.4,191,193.4L191,193.4z"/>
			<path class="st1" d="M234,193.4c-1.5,0-2.7,1.2-2.7,2.7c0,1.5,1.2,2.7,2.7,2.7c1.5,0,2.7-1.2,2.7-2.7
				C236.7,194.6,235.5,193.4,234,193.4L234,193.4z"/>
			<path class="st1" d="M259.4,193.5c-1.4,0-2.5,1.1-2.5,2.5c0,0.7,0.3,1.3,0.7,1.7c0.4,0.4,1.1,0.7,1.7,0.7c1.4,0,2.5-1.1,2.5-2.5
				C261.9,194.6,260.8,193.5,259.4,193.5L259.4,193.5z"/>
			<path class="st1" d="M272.8,193.8c-1.2,0-2.3,1-2.3,2.3c0,0.6,0.2,1.2,0.7,1.6c0.4,0.4,1,0.7,1.6,0.7c0.6,0,1.2-0.2,1.6-0.7
				c0.4-0.4,0.7-1,0.7-1.6C275,194.9,274,193.8,272.8,193.8L272.8,193.8z"/>
			<path class="st1" d="M121,196c-0.6,0-1.2,0.3-1.6,0.7c-0.4,0.4-0.7,1-0.7,1.6c0,1.3,1.1,2.3,2.3,2.3s2.3-1.1,2.3-2.3
				c0-0.6-0.3-1.2-0.7-1.6C122.2,196.3,121.6,196,121,196L121,196z"/>
			<path class="st1" d="M153.3,197.2c-1.5,0-2.7,1.2-2.7,2.7c0,1.5,1.2,2.7,2.7,2.7c0.7,0,1.4-0.3,1.9-0.8c0.5-0.5,0.8-1.2,0.8-1.9
				c0-0.7-0.3-1.4-0.8-1.9C154.7,197.5,154,197.2,153.3,197.2L153.3,197.2z"/>
			<path class="st1" d="M200.2,198.4c-1.6,0-2.9,1.3-2.9,2.9s1.3,2.9,2.9,2.9s2.9-1.3,2.9-2.9S201.8,198.4,200.2,198.4L200.2,198.4z
				"/>
			<path class="st1" d="M211.8,198.4c-0.8,0-1.5,0.3-2,0.8c-0.5,0.5-0.8,1.2-0.8,2c0,1.6,1.3,2.8,2.8,2.8c1.6,0,2.8-1.3,2.8-2.8
				c0-0.8-0.3-1.5-0.8-2C213.3,198.7,212.6,198.4,211.8,198.4L211.8,198.4z"/>
			<path class="st1" d="M130.8,198.6c-0.7,0-1.3,0.3-1.7,0.7c-0.4,0.4-0.7,1.1-0.7,1.7c0,0.7,0.3,1.3,0.7,1.7
				c0.4,0.4,1.1,0.7,1.7,0.7c1.4,0,2.5-1.1,2.5-2.5C133.3,199.7,132.2,198.6,130.8,198.6L130.8,198.6z"/>
			<path class="st1" d="M141.5,199.2c-1.4,0-2.6,1.1-2.6,2.6c0,1.4,1.1,2.6,2.6,2.6c1.4,0,2.6-1.1,2.6-2.6
				C144.1,200.3,142.9,199.2,141.5,199.2L141.5,199.2z"/>
			<path class="st1" d="M102.9,199.3c-1.1,0-2,0.9-2,2c0,1.1,0.9,2,2,2c1.1,0,2-0.9,2-2c0-0.5-0.2-1.1-0.6-1.4
				C103.9,199.5,103.4,199.3,102.9,199.3L102.9,199.3z"/>
			<path class="st1" d="M250.8,199.4c-0.7,0-1.3,0.3-1.8,0.8c-0.5,0.5-0.8,1.1-0.8,1.8c0,1.4,1.1,2.5,2.5,2.5c1.4,0,2.5-1.1,2.5-2.5
				C253.4,200.6,252.3,199.4,250.8,199.4L250.8,199.4z"/>
			<path class="st1" d="M183.4,200.2c-1.6,0-2.9,1.3-2.9,2.9c0,0.8,0.3,1.5,0.8,2c0.5,0.5,1.3,0.8,2,0.8s1.5-0.3,2-0.8
				c0.5-0.5,0.8-1.3,0.8-2C186.2,201.4,185,200.2,183.4,200.2L183.4,200.2z"/>
			<path class="st1" d="M163.4,201.8c-0.8,0-1.4,0.3-1.9,0.8c-0.5,0.5-0.8,1.2-0.8,1.9c0,0.8,0.3,1.4,0.8,1.9
				c0.5,0.5,1.2,0.8,1.9,0.8c1.5,0,2.8-1.2,2.8-2.8c0-0.8-0.3-1.5-0.8-1.9C164.8,202.1,164.1,201.8,163.4,201.8L163.4,201.8z"/>
			<path class="st1" d="M264.8,202.2c-1.3,0-2.3,1.1-2.3,2.3c0,0.6,0.3,1.2,0.7,1.6c0.4,0.4,1,0.7,1.6,0.7c0.6,0,1.2-0.3,1.6-0.7
				c0.4-0.4,0.7-1,0.7-1.6s-0.3-1.2-0.7-1.6C266,202.5,265.4,202.2,264.8,202.2L264.8,202.2z"/>
			<path class="st1" d="M173.8,202.8c-1.5,0-2.8,1.2-2.8,2.8c0,0.8,0.3,1.5,0.8,2c0.5,0.5,1.2,0.8,2,0.8c1.5,0,2.8-1.2,2.8-2.8
				C176.6,204.1,175.3,202.8,173.8,202.8L173.8,202.8z"/>
			<path class="st1" d="M241.5,203.2c-1.5,0-2.6,1.2-2.6,2.6c0,0.7,0.3,1.4,0.8,1.9c0.5,0.5,1.1,0.8,1.9,0.8c1.5,0,2.6-1.2,2.6-2.6
				C244.1,204.4,243,203.2,241.5,203.2L241.5,203.2z"/>
			<path class="st1" d="M221.7,203.3c-1.5,0-2.8,1.2-2.8,2.8c0,0.8,0.3,1.5,0.8,1.9c0.5,0.5,1.2,0.8,1.9,0.8c0.8,0,1.5-0.3,1.9-0.8
				c0.5-0.5,0.8-1.2,0.8-1.9C224.5,204.5,223.2,203.3,221.7,203.3L221.7,203.3z"/>
			<path class="st1" d="M111.5,204.3c-1.2,0-2.1,1-2.1,2.1c0,1.2,1,2.1,2.1,2.1c1.2,0,2.1-1,2.1-2.1
				C113.7,205.2,112.7,204.3,111.5,204.3L111.5,204.3z"/>
			<path class="st1" d="M231.7,204.7c-0.7,0-1.4,0.3-1.9,0.8c-0.5,0.5-0.8,1.2-0.8,1.9s0.3,1.4,0.8,1.9c0.5,0.5,1.2,0.8,1.9,0.8
				c1.5,0,2.7-1.2,2.7-2.7S233.2,204.7,231.7,204.7L231.7,204.7z"/>
			<path class="st1" d="M194.2,206.2c-0.8,0-1.5,0.3-2,0.8c-0.5,0.5-0.8,1.2-0.8,2s0.3,1.5,0.8,2c0.5,0.5,1.2,0.8,2,0.8
				c1.5,0,2.8-1.3,2.8-2.8S195.7,206.2,194.2,206.2L194.2,206.2z"/>
			<path class="st1" d="M151.8,207.1c-0.7,0-1.4,0.3-1.9,0.8c-0.5,0.5-0.8,1.1-0.8,1.9c0,1.5,1.2,2.7,2.7,2.7c1.5,0,2.7-1.2,2.7-2.7
				c0-0.7-0.3-1.4-0.8-1.9C153.2,207.4,152.5,207.1,151.8,207.1L151.8,207.1z"/>
			<path class="st1" d="M207.7,207.6c-1.5,0-2.8,1.2-2.8,2.8s1.2,2.8,2.8,2.8c1.5,0,2.8-1.2,2.8-2.8
				C210.5,208.9,209.2,207.6,207.7,207.6L207.7,207.6z"/>
			<path class="st1" d="M120.8,207.7c-0.6,0-1.2,0.2-1.6,0.7c-0.4,0.4-0.7,1-0.7,1.6c0,1.2,1,2.3,2.3,2.3c1.2,0,2.3-1,2.3-2.3
				c0-0.6-0.2-1.2-0.7-1.6S121.4,207.7,120.8,207.7L120.8,207.7z"/>
			<path class="st1" d="M255.8,208.7c-0.6,0-1.2,0.3-1.7,0.7c-0.4,0.4-0.7,1.1-0.7,1.7c0,0.6,0.3,1.2,0.7,1.7
				c0.4,0.4,1.1,0.7,1.7,0.7c1.3,0,2.5-1.1,2.5-2.5c0-0.6-0.3-1.2-0.7-1.7C257.1,209,256.5,208.7,255.8,208.7L255.8,208.7z"/>
			<path class="st1" d="M140.9,209.4c-0.7,0-1.3,0.3-1.8,0.8c-0.5,0.5-0.8,1.1-0.8,1.8s0.3,1.3,0.8,1.8c0.5,0.5,1.1,0.8,1.8,0.8
				c1.4,0,2.5-1.1,2.5-2.5c0-0.7-0.3-1.3-0.8-1.8C142.2,209.7,141.6,209.4,140.9,209.4L140.9,209.4z"/>
			<path class="st1" d="M130.6,209.5c-1.3,0-2.4,1.1-2.4,2.4s1.1,2.4,2.4,2.4c0.6,0,1.2-0.3,1.7-0.7s0.7-1.1,0.7-1.7
				s-0.3-1.2-0.7-1.7C131.9,209.8,131.2,209.5,130.6,209.5L130.6,209.5z"/>
			<path class="st1" d="M185.3,211.3c-1.5,0-2.8,1.2-2.8,2.8s1.2,2.8,2.8,2.8c0.8,0,1.5-0.3,2-0.8c0.5-0.5,0.8-1.2,0.8-2
				c0-0.7-0.3-1.5-0.8-2C186.7,211.6,186,211.3,185.3,211.3L185.3,211.3z"/>
			<path class="st1" d="M163.1,211.9c-1.5,0-2.7,1.2-2.7,2.7s1.2,2.7,2.7,2.7c1.5,0,2.7-1.2,2.7-2.7
				C165.8,213,164.6,211.9,163.1,211.9L163.1,211.9z"/>
			<path class="st1" d="M103.9,212.9c-1.1,0-1.9,0.9-1.9,1.9c0,1.1,0.9,1.9,1.9,1.9c0.5,0,1-0.2,1.4-0.6c0.4-0.4,0.6-0.8,0.6-1.4
				C105.9,213.8,105,212.9,103.9,212.9L103.9,212.9z"/>
			<path class="st1" d="M216.4,213c-1.5,0-2.7,1.2-2.7,2.7s1.2,2.7,2.7,2.7c1.5,0,2.7-1.2,2.7-2.7S217.9,213,216.4,213L216.4,213z"
				/>
			<path class="st1" d="M174.6,213.2c-0.7,0-1.4,0.3-1.9,0.8c-0.5,0.5-0.8,1.2-0.8,1.9c0,0.7,0.3,1.4,0.8,1.9
				c0.5,0.5,1.2,0.8,1.9,0.8c0.7,0,1.4-0.3,1.9-0.8c0.5-0.5,0.8-1.2,0.8-1.9c0-0.7-0.3-1.4-0.8-1.9
				C176,213.6,175.3,213.2,174.6,213.2L174.6,213.2z"/>
			<path class="st1" d="M200.2,215.1c-1.5,0-2.7,1.2-2.7,2.7c0,0.8,0.3,1.4,0.8,1.9c0.5,0.5,1.2,0.8,1.9,0.8c1.5,0,2.7-1.2,2.7-2.7
				S201.7,215.1,200.2,215.1L200.2,215.1z"/>
			<path class="st1" d="M226.1,215.5c-1.5,0-2.7,1.2-2.7,2.7c0,1.5,1.2,2.7,2.7,2.7c1.5,0,2.7-1.2,2.7-2.7
				C228.7,216.7,227.5,215.5,226.1,215.5L226.1,215.5z"/>
			<path class="st1" d="M152.8,217.2c-0.7,0-1.3,0.3-1.8,0.8c-0.5,0.5-0.8,1.1-0.8,1.8c0,0.7,0.3,1.3,0.8,1.8
				c0.5,0.5,1.1,0.8,1.8,0.8c0.7,0,1.3-0.3,1.8-0.8c0.5-0.5,0.8-1.1,0.8-1.8c0-0.7-0.3-1.3-0.8-1.8
				C154.1,217.5,153.5,217.2,152.8,217.2L152.8,217.2z"/>
			<path class="st1" d="M122.7,219.7c-0.6,0-1.1,0.2-1.5,0.6c-0.4,0.4-0.6,1-0.6,1.5c0,1.2,1,2.2,2.2,2.2c1.2,0,2.2-1,2.2-2.2
				c0-0.6-0.2-1.1-0.6-1.5C123.8,219.9,123.3,219.7,122.7,219.7L122.7,219.7z"/>
			<path class="st1" d="M142.6,220c-1.3,0-2.5,1.1-2.5,2.5s1.1,2.5,2.5,2.5c1.4,0,2.5-1.1,2.5-2.5S144,220,142.6,220L142.6,220z"/>
			<path class="st1" d="M190.1,220.3c-1.5,0-2.7,1.2-2.7,2.7c0,1.5,1.2,2.7,2.7,2.7c0.7,0,1.4-0.3,1.9-0.8c0.5-0.5,0.8-1.2,0.8-1.9
				s-0.3-1.4-0.8-1.9C191.5,220.5,190.9,220.3,190.1,220.3L190.1,220.3z"/>
			<path class="st1" d="M132.6,220.7c-0.6,0-1.2,0.3-1.6,0.7c-0.4,0.4-0.7,1-0.7,1.6c0,0.6,0.3,1.2,0.7,1.6c0.4,0.4,1,0.7,1.6,0.7
				s1.2-0.3,1.6-0.7c0.4-0.4,0.7-1,0.7-1.6c0-0.6-0.3-1.2-0.7-1.6C133.7,221,133.1,220.7,132.6,220.7L132.6,220.7z"/>
			<path class="st1" d="M208.1,221.2c-0.7,0-1.4,0.3-1.9,0.8c-0.5,0.5-0.8,1.2-0.8,1.9c0,1.5,1.2,2.7,2.7,2.7c1.5,0,2.7-1.2,2.7-2.7
				C210.8,222.5,209.6,221.2,208.1,221.2L208.1,221.2z"/>
			<path class="st1" d="M165.6,221.6c-1.5,0-2.6,1.1-2.6,2.6c0,1.5,1.1,2.6,2.6,2.6c1.5,0,2.6-1.1,2.6-2.6
				C168.2,222.7,167,221.6,165.6,221.6L165.6,221.6z"/>
			<path class="st1" d="M178.3,222.5c-1.5,0-2.7,1.2-2.7,2.7c0,1.5,1.2,2.7,2.7,2.7c0.7,0,1.4-0.3,1.9-0.8c0.5-0.5,0.8-1.2,0.8-1.9
				C181,223.7,179.8,222.5,178.3,222.5L178.3,222.5z"/>
			<path class="st1" d="M156.2,227.1c-0.7,0-1.3,0.3-1.8,0.7c-0.5,0.5-0.7,1.1-0.7,1.8c0,1.4,1.1,2.5,2.5,2.5s2.5-1.1,2.5-2.5
				c0-0.7-0.3-1.3-0.7-1.8C157.5,227.3,156.9,227.1,156.2,227.1L156.2,227.1z"/>
			<path class="st1" d="M197.1,227.4c-1.5,0-2.6,1.2-2.6,2.6c0,1.5,1.2,2.6,2.6,2.6c1.5,0,2.6-1.2,2.6-2.6
				C199.8,228.5,198.6,227.4,197.1,227.4L197.1,227.4z"/>
			<path class="st1" d="M146.4,230.4c-0.6,0-1.2,0.3-1.7,0.7c-0.4,0.4-0.7,1.1-0.7,1.7c0,0.6,0.3,1.2,0.7,1.7
				c0.4,0.4,1.1,0.7,1.7,0.7c1.3,0,2.3-1.1,2.3-2.3C148.8,231.4,147.8,230.4,146.4,230.4L146.4,230.4z"/>
			<path class="st1" d="M170.4,230.6c-1.4,0-2.5,1.1-2.5,2.5c0,1.4,1.1,2.5,2.5,2.5c1.4,0,2.5-1.1,2.5-2.5
				C172.9,231.7,171.7,230.6,170.4,230.6L170.4,230.6z"/>
			<path class="st1" d="M184.3,230.7c-1.4,0-2.6,1.1-2.6,2.6c0,0.7,0.3,1.3,0.8,1.8c0.5,0.5,1.1,0.8,1.8,0.8c1.4,0,2.6-1.1,2.6-2.6
				C186.9,231.8,185.8,230.7,184.3,230.7L184.3,230.7z"/>
			<path class="st1" d="M126.7,231.6c-1.1,0-2.1,0.9-2.1,2.1c0,0.6,0.2,1.1,0.6,1.5s0.9,0.6,1.5,0.6s1.1-0.2,1.5-0.6
				c0.4-0.4,0.6-0.9,0.6-1.5C128.7,232.6,127.8,231.6,126.7,231.6L126.7,231.6z"/>
			<path class="st1" d="M136.6,231.8c-0.6,0-1.1,0.2-1.6,0.7c-0.4,0.4-0.7,1-0.7,1.6c0,0.6,0.2,1.1,0.7,1.6c0.4,0.4,1,0.7,1.6,0.7
				c0.6,0,1.1-0.2,1.6-0.7c0.4-0.4,0.7-1,0.7-1.6c0-0.6-0.2-1.1-0.7-1.6C137.7,232,137.1,231.8,136.6,231.8L136.6,231.8z"/>
			<path class="st1" d="M205.8,232.6c-1.4,0-2.6,1.1-2.6,2.6c0,1.4,1.1,2.6,2.6,2.6c0.7,0,1.3-0.3,1.8-0.8c0.5-0.5,0.8-1.1,0.8-1.8
				c0-0.7-0.3-1.3-0.8-1.8C207.1,232.8,206.5,232.6,205.8,232.6L205.8,232.6z"/>
			<path class="st1" d="M161.7,236.4c-1.3,0-2.4,1.1-2.4,2.4c0,1.3,1.1,2.4,2.4,2.4c0.6,0,1.2-0.3,1.7-0.7s0.7-1.1,0.7-1.7
				s-0.3-1.2-0.7-1.7C162.9,236.7,162.3,236.4,161.7,236.4L161.7,236.4z"/>
			<path class="st1" d="M192.2,237.3c-1.4,0-2.5,1.1-2.5,2.5c0,1.4,1.1,2.5,2.5,2.5c0.7,0,1.3-0.3,1.8-0.8c0.5-0.5,0.8-1.1,0.8-1.8
				C194.7,238.4,193.6,237.3,192.2,237.3L192.2,237.3z"/>
			<path class="st1" d="M177.2,238.7c-0.7,0-1.3,0.3-1.7,0.7c-0.4,0.4-0.7,1.1-0.7,1.7c0,1.4,1.1,2.5,2.5,2.5c0.7,0,1.3-0.3,1.7-0.7
				c0.4-0.4,0.7-1.1,0.7-1.7c0-0.7-0.3-1.3-0.7-1.7C178.5,238.9,177.9,238.7,177.2,238.7L177.2,238.7z"/>
			<path class="st1" d="M152.4,240.3c-1.2,0-2.3,1-2.3,2.3c0,0.6,0.2,1.2,0.7,1.6c0.4,0.4,1,0.7,1.6,0.7c0.6,0,1.2-0.2,1.6-0.7
				c0.4-0.4,0.7-1,0.7-1.6c0-0.6-0.2-1.2-0.7-1.6C153.5,240.6,152.9,240.3,152.4,240.3L152.4,240.3z"/>
			<path class="st1" d="M201.7,242.3c-1.3,0-2.5,1.1-2.5,2.5c0,0.7,0.3,1.2,0.7,1.7c0.4,0.4,1.1,0.7,1.7,0.7s1.2-0.3,1.7-0.7
				c0.4-0.4,0.7-1.1,0.7-1.7C204.1,243.4,203,242.3,201.7,242.3L201.7,242.3z"/>
			<path class="st1" d="M169.1,244.9c-1.3,0-2.3,1.1-2.3,2.3c0,0.6,0.3,1.2,0.7,1.6c0.4,0.4,1,0.7,1.6,0.7c1.3,0,2.3-1.1,2.3-2.3
				C171.4,245.9,170.4,244.9,169.1,244.9L169.1,244.9z"/>
			<path class="st1" d="M185.8,245.5c-0.6,0-1.2,0.3-1.7,0.7c-0.4,0.4-0.7,1.1-0.7,1.7c0,0.6,0.3,1.2,0.7,1.7s1.1,0.7,1.7,0.7
				s1.2-0.3,1.7-0.7c0.4-0.4,0.7-1.1,0.7-1.7C188.2,246.5,187.1,245.5,185.8,245.5L185.8,245.5z"/>
			<path class="st1" d="M160.1,249.4c-0.6,0-1.1,0.2-1.5,0.7c-0.4,0.4-0.7,1-0.7,1.5s0.2,1.1,0.7,1.5c0.4,0.4,1,0.7,1.5,0.7
				c0.5,0,1.1-0.2,1.5-0.7c0.4-0.4,0.7-1,0.7-1.5C162.4,250.4,161.4,249.4,160.1,249.4L160.1,249.4z"/>
			<path class="st1" d="M195.9,250.7c-1.3,0-2.3,1-2.3,2.3c0,0.6,0.2,1.2,0.7,1.6c0.4,0.4,1,0.7,1.6,0.7s1.2-0.2,1.6-0.7
				c0.4-0.4,0.7-1,0.7-1.6C198.2,251.8,197.2,250.7,195.9,250.7L195.9,250.7z"/>
			<path class="st1" d="M178.3,252.1c-1.2,0-2.3,1-2.3,2.3c0,1.2,1,2.3,2.3,2.3c0.6,0,1.1-0.2,1.6-0.7c0.4-0.4,0.7-1,0.7-1.6
				c0-0.6-0.2-1.1-0.7-1.6C179.4,252.3,178.8,252.1,178.3,252.1L178.3,252.1z"/>
			<path class="st1" d="M207.2,254.3c-0.6,0-1.1,0.2-1.6,0.7c-0.4,0.4-0.7,1-0.7,1.6c0,0.6,0.2,1.1,0.7,1.6c0.4,0.4,1,0.7,1.6,0.7
				c0.6,0,1.1-0.2,1.6-0.7c0.4-0.4,0.7-1,0.7-1.6C209.4,255.3,208.5,254.3,207.2,254.3L207.2,254.3z"/>
			<path class="st1" d="M169.7,257.4c-0.6,0-1.1,0.2-1.5,0.6s-0.6,0.9-0.6,1.5c0,1.2,1,2.1,2.1,2.1c1.2,0,2.1-1,2.1-2.1
				c0-0.6-0.2-1.1-0.6-1.5S170.3,257.4,169.7,257.4L169.7,257.4z"/>
			<path class="st1" d="M189,258c-0.6,0-1.1,0.2-1.5,0.6c-0.4,0.4-0.6,1-0.6,1.5c0,0.6,0.2,1.1,0.6,1.5c0.4,0.4,1,0.6,1.5,0.6
				s1.1-0.2,1.5-0.6c0.4-0.4,0.6-1,0.6-1.5c0-0.6-0.2-1.1-0.6-1.5C190,258.2,189.5,258,189,258L189,258z"/>
			<path class="st1" d="M160.5,261.3c-1.1,0-2,0.9-2,2c0,1.1,0.9,2,2,2c1.1,0,2-0.9,2-2c0-0.5-0.2-1-0.6-1.4
				C161.5,261.5,161,261.3,160.5,261.3L160.5,261.3z"/>
			<path class="st1" d="M200.8,262.1c-0.6,0-1.1,0.2-1.5,0.6c-0.4,0.4-0.6,0.9-0.6,1.5c0,0.6,0.2,1.1,0.6,1.5
				c0.4,0.4,0.9,0.6,1.5,0.6c0.6,0,1.1-0.2,1.5-0.6c0.4-0.4,0.6-0.9,0.6-1.5c0-0.6-0.2-1.1-0.6-1.5
				C201.9,262.3,201.4,262.1,200.8,262.1L200.8,262.1z"/>
			<path class="st1" d="M180.8,263.9c-1.1,0-2,0.9-2,2c0,0.5,0.2,1.1,0.6,1.5s0.9,0.6,1.5,0.6c0.5,0,1.1-0.2,1.5-0.6
				s0.6-0.9,0.6-1.5C182.9,264.9,182,263.9,180.8,263.9L180.8,263.9z"/>
			<path class="st1" d="M171.9,268.7c-1.1,0-1.9,0.8-1.9,1.9c0,1.1,0.8,1.9,1.9,1.9c1.1,0,1.9-0.8,1.9-1.9
				C173.8,269.6,173,268.7,171.9,268.7L171.9,268.7z"/>
			<path class="st1" d="M193.3,268.8c-1.1,0-2,0.9-2,2s0.9,2,2,2c0.5,0,1-0.2,1.4-0.6c0.4-0.4,0.6-0.9,0.6-1.4c0-0.5-0.2-1-0.6-1.4
				C194.3,269,193.8,268.8,193.3,268.8L193.3,268.8z"/>
			<path class="st1" d="M206.7,271.8c-0.5,0-1,0.2-1.3,0.6c-0.4,0.4-0.6,0.8-0.6,1.3c0,1.1,0.8,1.9,1.9,1.9s1.9-0.8,1.9-1.9
				c0-0.5-0.2-1-0.6-1.3C207.7,272,207.2,271.8,206.7,271.8L206.7,271.8z"/>
			<path class="st1" d="M162.2,272.2c-0.5,0-0.9,0.2-1.3,0.5s-0.5,0.8-0.5,1.3c0,1,0.8,1.8,1.8,1.8c1,0,1.8-0.8,1.8-1.8
				C164,273.1,163.2,272.2,162.2,272.2L162.2,272.2z"/>
			<path class="st1" d="M184.7,274.5c-1,0-1.9,0.8-1.9,1.9s0.8,1.9,1.9,1.9s1.9-0.8,1.9-1.9C186.5,275.3,185.8,274.5,184.7,274.5
				L184.7,274.5z"/>
			<path class="st1" d="M198.7,278.4c-1,0-1.8,0.8-1.8,1.8c0,1,0.8,1.8,1.8,1.8c1,0,1.8-0.8,1.8-1.8
				C200.4,279.2,199.7,278.4,198.7,278.4L198.7,278.4z"/>
			<path class="st1" d="M213.5,280.2c-0.4,0-0.9,0.2-1.2,0.5c-0.3,0.3-0.5,0.8-0.5,1.2s0.2,0.9,0.5,1.2c0.3,0.3,0.8,0.5,1.2,0.5
				c0.9,0,1.7-0.8,1.7-1.7C215.2,281,214.4,280.2,213.5,280.2L213.5,280.2z"/>
			<path class="st1" d="M204.9,286.9c-0.4,0-0.8,0.2-1.1,0.4c-0.3,0.3-0.4,0.7-0.4,1.1s0.2,0.8,0.4,1.1c0.3,0.3,0.7,0.4,1.1,0.4
				c0.9,0,1.5-0.7,1.5-1.5C206.5,287.6,205.8,286.9,204.9,286.9L204.9,286.9z"/>
		</g>
		<g>
			<path class="st2" d="M187.7,56.3c-0.4,0-0.8,0.2-1.1,0.4c-0.3,0.3-0.4,0.7-0.4,1.1c0,0.4,0.2,0.8,0.4,1.1
				c0.3,0.3,0.7,0.4,1.1,0.4c0.8,0,1.5-0.7,1.5-1.5S188.5,56.3,187.7,56.3L187.7,56.3z"/>
			<path class="st3" d="M203.2,59.6c-0.9,0-1.6,0.7-1.6,1.6c0,0.9,0.7,1.6,1.6,1.6c0.4,0,0.8-0.2,1.1-0.4c0.3-0.3,0.4-0.7,0.4-1.1
				C204.8,60.3,204,59.6,203.2,59.6L203.2,59.6z"/>
			<path class="st2" d="M228.1,62.4c-0.8,0-1.5,0.7-1.5,1.5c0,0.8,0.7,1.5,1.5,1.5c0.8,0,1.5-0.7,1.5-1.5
				C229.6,63,229,62.4,228.1,62.4L228.1,62.4z"/>
			<path class="st4" d="M193.7,64.4c-0.4,0-0.9,0.2-1.2,0.5c-0.3,0.3-0.5,0.8-0.5,1.2c0,0.4,0.2,0.9,0.5,1.2
				c0.3,0.3,0.8,0.5,1.2,0.5s0.9-0.2,1.2-0.5c0.3-0.3,0.5-0.8,0.5-1.2c0-0.4-0.2-0.9-0.5-1.2C194.6,64.6,194.2,64.4,193.7,64.4
				L193.7,64.4z"/>
			<path class="st4" d="M217.7,65c-0.9,0-1.6,0.8-1.6,1.6c0,0.4,0.2,0.8,0.5,1.1c0.3,0.3,0.8,0.5,1.1,0.5s0.8-0.2,1.1-0.5
				c0.3-0.3,0.5-0.8,0.5-1.1C219.3,65.7,218.6,65,217.7,65L217.7,65z"/>
			<path class="st2" d="M207.8,68.7c-0.5,0-0.9,0.2-1.2,0.5c-0.4,0.4-0.5,0.8-0.5,1.2c0,1,0.8,1.8,1.8,1.8c1,0,1.8-0.8,1.8-1.8
				c0-0.5-0.2-0.9-0.5-1.2C208.8,68.9,208.3,68.7,207.8,68.7L207.8,68.7z"/>
			<path class="st3" d="M241.4,70.8c-0.9,0-1.6,0.7-1.6,1.6c0,0.9,0.7,1.6,1.6,1.6c0.9,0,1.6-0.7,1.6-1.6
				C243,71.5,242.2,70.8,241.4,70.8L241.4,70.8z"/>
			<path class="st2" d="M230.9,72.2c-0.4,0-0.9,0.2-1.2,0.5c-0.3,0.3-0.5,0.8-0.5,1.2c0,0.4,0.2,0.9,0.5,1.2
				c0.3,0.3,0.8,0.5,1.2,0.5c1,0,1.7-0.8,1.7-1.7C232.6,72.9,231.8,72.2,230.9,72.2L230.9,72.2z"/>
			<path class="st3" d="M220.8,74.8c-0.5,0-1,0.2-1.3,0.5c-0.4,0.4-0.5,0.8-0.5,1.3c0,0.5,0.2,1,0.5,1.3c0.4,0.4,0.8,0.5,1.3,0.5
				c0.5,0,1-0.2,1.3-0.5c0.4-0.4,0.5-0.8,0.5-1.3c0-0.5-0.2-1-0.5-1.3C221.8,75,221.3,74.8,220.8,74.8L220.8,74.8z"/>
			<path class="st4" d="M211.5,78.7c-1.1,0-2,0.9-2,2c0,0.5,0.2,1,0.6,1.4c0.4,0.4,0.9,0.6,1.4,0.6s1-0.2,1.4-0.6
				c0.4-0.4,0.6-0.9,0.6-1.4C213.5,79.6,212.6,78.7,211.5,78.7L211.5,78.7z"/>
			<path class="st4" d="M253,80.7c-0.9,0-1.7,0.8-1.7,1.7c0,0.4,0.2,0.9,0.5,1.2c0.3,0.3,0.8,0.5,1.2,0.5c0.4,0,0.9-0.2,1.2-0.5
				c0.3-0.3,0.5-0.8,0.5-1.2s-0.2-0.9-0.5-1.2C253.8,80.9,253.4,80.7,253,80.7L253,80.7z"/>
			<path class="st2" d="M242.5,81c-0.5,0-0.9,0.2-1.3,0.5c-0.4,0.4-0.5,0.8-0.5,1.3c0,0.5,0.2,0.9,0.5,1.3c0.4,0.4,0.8,0.5,1.3,0.5
				c1,0,1.8-0.8,1.8-1.8c0-0.5-0.2-0.9-0.5-1.3C243.4,81.2,243,81,242.5,81L242.5,81z"/>
			<path class="st2" d="M263.7,81.8c-0.4,0-0.8,0.2-1.1,0.4c-0.3,0.3-0.4,0.7-0.4,1.1c0,0.8,0.7,1.5,1.5,1.5s1.5-0.7,1.5-1.5
				c0-0.4-0.2-0.8-0.4-1.1C264.5,82,264.1,81.8,263.7,81.8L263.7,81.8z"/>
			<path class="st4" d="M232.4,82.6c-0.5,0-1,0.2-1.4,0.6c-0.4,0.4-0.6,0.8-0.6,1.4s0.2,1,0.6,1.4c0.4,0.4,0.8,0.6,1.4,0.6
				c1.1,0,1.9-0.9,1.9-1.9C234.3,83.5,233.5,82.6,232.4,82.6L232.4,82.6z"/>
			<path class="st2" d="M222.8,85.5c-1.1,0-2.1,0.9-2.1,2.1c0,1.1,0.9,2.1,2.1,2.1c0.5,0,1.1-0.2,1.5-0.6s0.6-0.9,0.6-1.5
				s-0.2-1.1-0.6-1.5C223.8,85.8,223.3,85.5,222.8,85.5L222.8,85.5z"/>
			<path class="st3" d="M213.9,89.8c-0.6,0-1.1,0.2-1.5,0.6c-0.4,0.4-0.6,1-0.6,1.5c0,0.6,0.2,1.1,0.6,1.5s1,0.6,1.5,0.6
				s1.1-0.2,1.5-0.6s0.6-1,0.6-1.5c0-0.6-0.2-1.1-0.6-1.5C215,90.1,214.5,89.8,213.9,89.8L213.9,89.8z"/>
			<path class="st2" d="M252.3,91.1c-0.5,0-1,0.2-1.3,0.6c-0.4,0.4-0.6,0.8-0.6,1.3c0,0.5,0.2,1,0.6,1.3c0.4,0.4,0.8,0.6,1.3,0.6
				c1.1,0,1.9-0.8,1.9-1.9c0-0.5-0.2-1-0.6-1.3C253.4,91.4,252.9,91.1,252.3,91.1L252.3,91.1z"/>
			<path class="st3" d="M242.2,91.7c-1.1,0-2,0.9-2,2c0,1.1,0.9,2,2,2c0.5,0,1.1-0.2,1.4-0.6c0.4-0.4,0.6-0.9,0.6-1.4
				c0-0.5-0.2-1.1-0.6-1.4C243.3,91.9,242.8,91.7,242.2,91.7L242.2,91.7z"/>
			<path class="st3" d="M262.7,92c-0.5,0-0.9,0.2-1.2,0.5c-0.3,0.3-0.5,0.8-0.5,1.2c0,1,0.8,1.8,1.8,1.8c1,0,1.8-0.8,1.8-1.8
				c0-0.5-0.2-0.9-0.5-1.2C263.6,92.1,263.1,92,262.7,92L262.7,92z"/>
			<path class="st2" d="M232.5,93.7c-0.6,0-1.1,0.2-1.5,0.6s-0.6,0.9-0.6,1.5c0,0.6,0.2,1.1,0.6,1.5c0.4,0.4,0.9,0.6,1.5,0.6
				c1.2,0,2.1-1,2.1-2.1c0-0.6-0.2-1.1-0.6-1.5C233.6,94,233.1,93.7,232.5,93.7L232.5,93.7z"/>
			<path class="st4" d="M273.1,94.2c-0.4,0-0.8,0.2-1.1,0.5s-0.5,0.7-0.5,1.1s0.2,0.8,0.5,1.1s0.7,0.5,1.1,0.5
				c0.9,0,1.6-0.8,1.6-1.6C274.7,94.9,274,94.2,273.1,94.2L273.1,94.2z"/>
			<path class="st3" d="M108.4,96.9c-0.4,0-0.8,0.2-1.1,0.4c-0.3,0.3-0.4,0.7-0.4,1.1c0,0.4,0.2,0.8,0.4,1.1
				c0.3,0.3,0.7,0.4,1.1,0.4c0.9,0,1.5-0.7,1.5-1.5C110,97.6,109.2,96.9,108.4,96.9L108.4,96.9z"/>
			<path class="st3" d="M223.2,97.3c-1.2,0-2.3,1-2.3,2.3c0,1.2,1,2.3,2.3,2.3c0.6,0,1.2-0.2,1.6-0.7c0.4-0.4,0.7-1,0.7-1.6
				s-0.2-1.2-0.7-1.6C224.4,97.5,223.8,97.3,223.2,97.3L223.2,97.3z"/>
			<path class="st3" d="M283.3,97.7c-0.8,0-1.5,0.7-1.5,1.5c0,0.8,0.7,1.5,1.5,1.5s1.5-0.7,1.5-1.5
				C284.8,98.4,284.2,97.7,283.3,97.7L283.3,97.7z"/>
			<path class="st3" d="M250.3,101.9c-1.1,0-2.1,0.9-2.1,2.1c0,1.1,0.9,2.1,2.1,2.1c0.6,0,1.1-0.2,1.5-0.6c0.4-0.4,0.6-0.9,0.6-1.5
				c0-0.6-0.2-1.1-0.6-1.5C251.4,102.2,250.8,101.9,250.3,101.9L250.3,101.9z"/>
			<path class="st2" d="M260.3,102.3c-1.1,0-1.9,0.9-1.9,1.9c0,0.5,0.2,1,0.6,1.4c0.4,0.4,0.9,0.6,1.4,0.6c0.5,0,1-0.2,1.4-0.6
				c0.4-0.4,0.6-0.9,0.6-1.4C262.3,103.2,261.4,102.3,260.3,102.3L260.3,102.3z"/>
			<path class="st4" d="M214.7,102.4c-1.3,0-2.4,1.1-2.4,2.4c0,1.3,1.1,2.4,2.4,2.4c1.3,0,2.4-1.1,2.4-2.4
				C217.1,103.5,216,102.4,214.7,102.4L214.7,102.4z"/>
			<path class="st4" d="M240.4,103.1c-1.2,0-2.2,1-2.2,2.2c0,1.2,1,2.2,2.2,2.2c0.6,0,1.1-0.2,1.5-0.7c0.4-0.4,0.7-1,0.7-1.5
				c0-0.6-0.2-1.1-0.7-1.5C241.6,103.3,241,103.1,240.4,103.1L240.4,103.1z"/>
			<path class="st3" d="M270.4,104.1c-0.5,0-1,0.2-1.3,0.5c-0.4,0.4-0.5,0.8-0.5,1.3s0.2,1,0.5,1.3c0.4,0.4,0.8,0.5,1.3,0.5
				s1-0.2,1.3-0.5c0.4-0.4,0.5-0.8,0.5-1.3s-0.2-1-0.5-1.3C271.3,104.3,270.9,104.1,270.4,104.1L270.4,104.1z"/>
			<path class="st2" d="M230.9,105.9c-0.6,0-1.2,0.3-1.6,0.7c-0.4,0.4-0.7,1-0.7,1.6s0.3,1.2,0.7,1.6c0.4,0.4,1,0.7,1.6,0.7
				c1.3,0,2.3-1.1,2.3-2.3S232.2,105.9,230.9,105.9L230.9,105.9z"/>
			<path class="st2" d="M96.2,107.3c-0.4,0-0.8,0.2-1.1,0.4c-0.3,0.3-0.4,0.7-0.4,1.1c0,0.4,0.2,0.8,0.4,1.1
				c0.3,0.3,0.7,0.4,1.1,0.4s0.8-0.2,1.1-0.4c0.3-0.3,0.4-0.7,0.4-1.1s-0.2-0.8-0.4-1.1C97,107.4,96.6,107.3,96.2,107.3L96.2,107.3z
				"/>
			<path class="st4" d="M106.5,107.3c-0.4,0-0.9,0.2-1.2,0.5c-0.3,0.3-0.5,0.8-0.5,1.2c0,0.9,0.8,1.7,1.7,1.7c0.4,0,0.9-0.2,1.2-0.5
				c0.3-0.3,0.5-0.8,0.5-1.2c0-0.4-0.2-0.9-0.5-1.2C107.4,107.4,106.9,107.3,106.5,107.3L106.5,107.3z"/>
			<path class="st2" d="M280.4,107.4c-0.9,0-1.7,0.8-1.7,1.7c0,0.4,0.2,0.9,0.5,1.2c0.3,0.3,0.8,0.5,1.2,0.5s0.9-0.2,1.2-0.5
				c0.3-0.3,0.5-0.8,0.5-1.2c0-0.4-0.2-0.9-0.5-1.2C281.3,107.5,280.8,107.4,280.4,107.4L280.4,107.4z"/>
			<path class="st3" d="M117,108.6c-0.5,0-1,0.2-1.3,0.6c-0.4,0.4-0.6,0.8-0.6,1.3s0.2,1,0.6,1.3c0.4,0.4,0.8,0.6,1.3,0.6
				c1.1,0,1.9-0.8,1.9-1.9S118.1,108.6,117,108.6L117,108.6z"/>
			<path class="st2" d="M207.1,109.2c-0.7,0-1.3,0.3-1.8,0.8c-0.5,0.5-0.8,1.1-0.8,1.8c0,0.7,0.3,1.3,0.8,1.8
				c0.5,0.5,1.1,0.8,1.8,0.8c1.4,0,2.5-1.1,2.5-2.5C209.6,110.4,208.5,109.2,207.1,109.2L207.1,109.2z"/>
			<path class="st3" d="M221.9,110.4c-1.4,0-2.5,1.1-2.5,2.5c0,1.4,1.1,2.5,2.5,2.5c0.7,0,1.3-0.3,1.7-0.7c0.4-0.4,0.7-1.1,0.7-1.7
				c0-0.7-0.3-1.3-0.7-1.7C223.2,110.7,222.5,110.4,221.9,110.4L221.9,110.4z"/>
			<path class="st2" d="M290.1,111.9c-0.4,0-0.8,0.2-1.1,0.5c-0.3,0.3-0.5,0.7-0.5,1.1c0,0.9,0.7,1.6,1.6,1.6c0.9,0,1.6-0.7,1.6-1.6
				c0-0.4-0.2-0.8-0.5-1.1C290.9,112.1,290.5,111.9,290.1,111.9L290.1,111.9z"/>
			<path class="st4" d="M256.4,112.9c-1.2,0-2.2,1-2.2,2.2s1,2.2,2.2,2.2c0.6,0,1.1-0.2,1.5-0.6c0.4-0.4,0.6-1,0.6-1.5
				C258.6,113.8,257.6,112.9,256.4,112.9L256.4,112.9z"/>
			<path class="st2" d="M246.4,113.2c-0.6,0-1.2,0.2-1.6,0.7c-0.4,0.4-0.7,1-0.7,1.6s0.2,1.2,0.7,1.6c0.4,0.4,1,0.7,1.6,0.7
				c1.3,0,2.3-1,2.3-2.3C248.7,114.2,247.7,113.2,246.4,113.2L246.4,113.2z"/>
			<path class="st2" d="M266.3,114.2c-1.1,0-2,0.9-2,2c0,1.1,0.9,2,2,2c0.5,0,1.1-0.2,1.5-0.6c0.4-0.4,0.6-0.9,0.6-1.5
				s-0.2-1.1-0.6-1.5C267.3,114.4,266.8,114.2,266.3,114.2L266.3,114.2z"/>
			<path class="st4" d="M236.6,115.3c-1.3,0-2.5,1.1-2.5,2.5s1.1,2.5,2.5,2.5c0.7,0,1.2-0.3,1.7-0.7c0.4-0.4,0.7-1.1,0.7-1.7
				c0-0.7-0.3-1.2-0.7-1.7C237.9,115.6,237.3,115.3,236.6,115.3L236.6,115.3z"/>
			<path class="st4" d="M276,117c-0.5,0-1,0.2-1.4,0.6s-0.6,0.8-0.6,1.4c0,1.1,0.8,1.9,1.9,1.9s1.9-0.8,1.9-1.9c0-0.5-0.2-1-0.6-1.4
				C277,117.2,276.5,117,276,117L276,117z"/>
			<path class="st2" d="M106,117.6c-0.5,0-0.9,0.2-1.3,0.5c-0.4,0.4-0.5,0.8-0.5,1.3c0,1,0.8,1.8,1.8,1.8s1.8-0.8,1.8-1.8
				C107.8,118.4,107,117.6,106,117.6L106,117.6z"/>
			<path class="st3" d="M95.5,118c-0.4,0-0.8,0.2-1.1,0.5s-0.5,0.7-0.5,1.1s0.2,0.8,0.5,1.1c0.3,0.3,0.7,0.5,1.1,0.5
				c0.9,0,1.6-0.7,1.6-1.6C97.1,118.7,96.4,118,95.5,118L95.5,118z"/>
			<path class="st4" d="M116.9,118.6c-1.1,0-2,0.9-2,2c0,1.1,0.9,2,2,2c1.1,0,2-0.9,2-2C118.9,119.5,118,118.6,116.9,118.6
				L116.9,118.6z"/>
			<path class="st2" d="M227,119.4c-1.4,0-2.6,1.1-2.6,2.6c0,1.4,1.1,2.6,2.6,2.6c1.4,0,2.6-1.1,2.6-2.6
				C229.6,120.6,228.4,119.4,227,119.4L227,119.4z"/>
			<path class="st3" d="M285.5,121.2c-1,0-1.8,0.8-1.8,1.8c0,0.5,0.2,0.9,0.5,1.3s0.8,0.5,1.3,0.5c0.5,0,0.9-0.2,1.3-0.5
				s0.5-0.8,0.5-1.3s-0.2-0.9-0.5-1.3C286.4,121.3,285.9,121.2,285.5,121.2L285.5,121.2z"/>
			<path class="st3" d="M250.4,123.8c-1.3,0-2.4,1.1-2.4,2.4c0,1.3,1.1,2.4,2.4,2.4c1.3,0,2.4-1.1,2.4-2.4
				C252.8,124.9,251.7,123.8,250.4,123.8L250.4,123.8z"/>
			<path class="st2" d="M260.4,124.2c-1.2,0-2.3,1-2.3,2.3c0,1.2,1,2.3,2.3,2.3c0.6,0,1.1-0.2,1.6-0.7c0.4-0.4,0.7-1,0.7-1.6
				c0-0.6-0.2-1.1-0.7-1.6C261.6,124.5,261,124.2,260.4,124.2L260.4,124.2z"/>
			<path class="st2" d="M240.3,125.3c-0.7,0-1.3,0.3-1.8,0.8c-0.5,0.5-0.8,1.1-0.8,1.8c0,1.4,1.1,2.5,2.5,2.5c0.7,0,1.3-0.3,1.8-0.8
				c0.5-0.5,0.8-1.1,0.8-1.8c0-0.7-0.3-1.3-0.8-1.8C241.5,125.5,240.9,125.3,240.3,125.3L240.3,125.3z"/>
			<path class="st4" d="M217.8,126c-0.7,0-1.4,0.3-1.9,0.8c-0.5,0.5-0.8,1.2-0.8,1.9c0,1.5,1.2,2.7,2.7,2.7c0.7,0,1.4-0.3,1.9-0.8
				c0.5-0.5,0.8-1.2,0.8-1.9c0-0.7-0.3-1.4-0.8-1.9C219.2,126.2,218.5,126,217.8,126L217.8,126z"/>
			<path class="st3" d="M270.1,126.4c-1.2,0-2.1,0.9-2.1,2.1c0,1.1,0.9,2.1,2.1,2.1c0.6,0,1.1-0.2,1.5-0.6c0.4-0.4,0.6-0.9,0.6-1.5
				c0-0.6-0.2-1.1-0.6-1.5C271.3,126.6,270.7,126.4,270.1,126.4L270.1,126.4z"/>
			<path class="st2" d="M294.5,126.7c-0.9,0-1.7,0.8-1.7,1.7s0.8,1.7,1.7,1.7c0.9,0,1.7-0.8,1.7-1.7
				C296.2,127.4,295.4,126.7,294.5,126.7L294.5,126.7z"/>
			<path class="st3" d="M106.9,127.7c-0.5,0-1,0.2-1.4,0.6c-0.4,0.4-0.6,0.8-0.6,1.4s0.2,1,0.6,1.4c0.4,0.4,0.8,0.6,1.4,0.6
				c1.1,0,1.9-0.9,1.9-1.9c0-0.5-0.2-1-0.6-1.4C107.9,127.9,107.4,127.7,106.9,127.7L106.9,127.7z"/>
			<path class="st2" d="M118.2,128.4c-1.2,0-2.2,1-2.2,2.2c0,1.2,1,2.2,2.2,2.2c0.6,0,1.1-0.2,1.5-0.6c0.4-0.4,0.6-0.9,0.6-1.5
				s-0.2-1.1-0.6-1.5C119.3,128.6,118.8,128.4,118.2,128.4L118.2,128.4z"/>
			<path class="st4" d="M96.1,128.4c-0.4,0-0.9,0.2-1.2,0.5c-0.3,0.3-0.5,0.8-0.5,1.2c0,1,0.8,1.7,1.7,1.7c1,0,1.7-0.8,1.7-1.7
				c0-0.4-0.2-0.9-0.5-1.2C97,128.6,96.6,128.4,96.1,128.4L96.1,128.4z"/>
			<path class="st3" d="M230,129c-0.7,0-1.4,0.3-1.9,0.8c-0.5,0.5-0.8,1.1-0.8,1.9c0,0.7,0.3,1.4,0.8,1.9c0.5,0.5,1.1,0.8,1.9,0.8
				c0.7,0,1.4-0.3,1.9-0.8c0.5-0.5,0.8-1.1,0.8-1.9c0-0.7-0.3-1.4-0.8-1.9C231.4,129.3,230.7,129,230,129L230,129z"/>
			<path class="st2" d="M279.5,130.1c-1.1,0-2,0.9-2,2c0,1.1,0.9,2,2,2s2-0.9,2-2c0-0.5-0.2-1-0.6-1.4
				C280.6,130.2,280,130.1,279.5,130.1L279.5,130.1z"/>
			<path class="st2" d="M85.9,130.5c-0.4,0-0.8,0.2-1.1,0.4c-0.3,0.3-0.4,0.7-0.4,1.1c0,0.4,0.2,0.8,0.4,1.1
				c0.3,0.3,0.7,0.4,1.1,0.4c0.4,0,0.8-0.2,1.1-0.4c0.3-0.3,0.4-0.7,0.4-1.1C87.5,131.2,86.8,130.5,85.9,130.5L85.9,130.5z"/>
			<path class="st3" d="M303,133.4c-0.4,0-0.8,0.2-1.1,0.4c-0.3,0.3-0.4,0.7-0.4,1.1c0,0.8,0.7,1.5,1.5,1.5c0.8,0,1.5-0.7,1.5-1.5
				S303.8,133.4,303,133.4L303,133.4z"/>
			<path class="st2" d="M252.3,134.5c-1.4,0-2.5,1.1-2.5,2.5c0,1.4,1.1,2.5,2.5,2.5c1.4,0,2.5-1.1,2.5-2.5
				C254.7,135.6,253.6,134.5,252.3,134.5L252.3,134.5z"/>
			<path class="st4" d="M288.4,135.1c-0.5,0-1,0.2-1.3,0.5c-0.4,0.4-0.5,0.8-0.5,1.3s0.2,1,0.5,1.3c0.4,0.4,0.8,0.5,1.3,0.5
				c1,0,1.9-0.8,1.9-1.9c0-0.5-0.2-1-0.5-1.3C289.4,135.3,288.9,135.1,288.4,135.1L288.4,135.1z"/>
			<path class="st3" d="M241.7,135.4c-1.4,0-2.6,1.1-2.6,2.6s1.1,2.6,2.6,2.6c1.4,0,2.6-1.1,2.6-2.6c0-0.7-0.3-1.3-0.8-1.8
				C243,135.7,242.3,135.4,241.7,135.4L241.7,135.4z"/>
			<path class="st4" d="M262.3,135.7c-0.6,0-1.2,0.3-1.6,0.7c-0.4,0.4-0.7,1-0.7,1.6s0.3,1.2,0.7,1.6c0.4,0.4,1,0.7,1.6,0.7
				s1.2-0.3,1.6-0.7c0.4-0.4,0.7-1,0.7-1.6c0-0.6-0.3-1.2-0.7-1.6C263.5,135.9,262.9,135.7,262.3,135.7L262.3,135.7z"/>
			<path class="st2" d="M219.6,135.7c-1.5,0-2.7,1.2-2.7,2.7c0,1.5,1.2,2.7,2.7,2.7c1.5,0,2.7-1.2,2.7-2.7
				C222.3,137,221.1,135.7,219.6,135.7L219.6,135.7z"/>
			<path class="st4" d="M109.1,137.3c-1.1,0-2.1,0.9-2.1,2.1c0,1.1,0.9,2.1,2.1,2.1c1.1,0,2.1-0.9,2.1-2.1c0-0.5-0.2-1.1-0.6-1.5
				C110.2,137.6,109.7,137.3,109.1,137.3L109.1,137.3z"/>
			<path class="st3" d="M121.1,137.7c-1.2,0-2.3,1-2.3,2.3s1,2.3,2.3,2.3c1.2,0,2.3-1,2.3-2.3C123.4,138.8,122.3,137.7,121.1,137.7
				L121.1,137.7z"/>
			<path class="st2" d="M98,138.5c-1,0-1.9,0.8-1.9,1.9s0.8,1.9,1.9,1.9s1.9-0.8,1.9-1.9C99.9,139.4,99.1,138.5,98,138.5L98,138.5z"
				/>
			<path class="st3" d="M271.9,138.6c-1.2,0-2.2,1-2.2,2.2s1,2.2,2.2,2.2s2.2-1,2.2-2.2S273.1,138.6,271.9,138.6L271.9,138.6z"/>
			<path class="st4" d="M230.5,138.9c-0.7,0-1.4,0.3-1.9,0.8c-0.5,0.5-0.8,1.2-0.8,1.9s0.3,1.4,0.8,1.9c0.5,0.5,1.2,0.8,1.9,0.8
				c0.7,0,1.4-0.3,1.9-0.8c0.5-0.5,0.8-1.2,0.8-1.9c0-0.7-0.3-1.4-0.8-1.9C231.9,139.1,231.2,138.9,230.5,138.9L230.5,138.9z"/>
			<path class="st3" d="M87.7,141c-0.9,0-1.7,0.8-1.7,1.7c0,0.9,0.8,1.7,1.7,1.7c0.9,0,1.7-0.8,1.7-1.7c0-0.4-0.2-0.9-0.5-1.2
				C88.6,141.2,88.2,141,87.7,141L87.7,141z"/>
			<path class="st2" d="M296.7,141.4c-1,0-1.7,0.8-1.7,1.7c0,0.4,0.2,0.9,0.5,1.2c0.3,0.3,0.8,0.5,1.2,0.5c0.4,0,0.9-0.2,1.2-0.5
				c0.3-0.3,0.5-0.8,0.5-1.2C298.5,142.2,297.7,141.4,296.7,141.4L296.7,141.4z"/>
			<path class="st2" d="M280.9,143.1c-0.5,0-1.1,0.2-1.5,0.6s-0.6,0.9-0.6,1.5s0.2,1.1,0.6,1.5s0.9,0.6,1.5,0.6
				c1.1,0,2.1-0.9,2.1-2.1S282,143.1,280.9,143.1L280.9,143.1z"/>
			<path class="st3" d="M251.9,145c-1.4,0-2.5,1.1-2.5,2.5c0,1.4,1.1,2.5,2.5,2.5c1.4,0,2.5-1.1,2.5-2.5
				C254.5,146.1,253.3,145,251.9,145L251.9,145z"/>
			<path class="st2" d="M240.7,145.3c-1.5,0-2.7,1.2-2.7,2.7c0,0.7,0.3,1.4,0.8,1.9c0.5,0.5,1.2,0.8,1.9,0.8c0.7,0,1.4-0.3,1.9-0.8
				c0.5-0.5,0.8-1.2,0.8-1.9C243.4,146.5,242.2,145.3,240.7,145.3L240.7,145.3z"/>
			<path class="st3" d="M218.2,146.1c-1.5,0-2.8,1.3-2.8,2.8s1.3,2.8,2.8,2.8c0.8,0,1.5-0.3,2-0.8c0.5-0.5,0.8-1.2,0.8-2
				c0-0.8-0.3-1.5-0.8-2C219.7,146.4,219,146.1,218.2,146.1L218.2,146.1z"/>
			<path class="st2" d="M112.8,146.5c-1.2,0-2.2,1-2.2,2.2s1,2.2,2.2,2.2s2.2-1,2.2-2.2S114,146.5,112.8,146.5L112.8,146.5z"/>
			<path class="st2" d="M262.2,146.8c-1.3,0-2.4,1.1-2.4,2.4c0,0.6,0.3,1.2,0.7,1.7c0.4,0.4,1.1,0.7,1.7,0.7c1.3,0,2.4-1.1,2.4-2.4
				C264.6,148,263.5,146.8,262.2,146.8L262.2,146.8z"/>
			<path class="st3" d="M101.3,148c-1.1,0-2,0.9-2,2c0,0.5,0.2,1,0.6,1.4c0.4,0.4,0.9,0.6,1.4,0.6c1.1,0,2-0.9,2-2
				S102.4,148,101.3,148L101.3,148z"/>
			<path class="st2" d="M228.2,148.6c-0.8,0-1.5,0.3-1.9,0.8c-0.5,0.5-0.8,1.2-0.8,1.9c0,0.8,0.3,1.5,0.8,1.9
				c0.5,0.5,1.2,0.8,1.9,0.8c0.8,0,1.5-0.3,1.9-0.8c0.5-0.5,0.8-1.2,0.8-1.9c0-0.8-0.3-1.5-0.8-1.9
				C229.6,148.9,228.9,148.6,228.2,148.6L228.2,148.6z"/>
			<path class="st4" d="M289.1,148.9c-0.5,0-1,0.2-1.4,0.6s-0.6,0.8-0.6,1.4c0,1.1,0.9,1.9,1.9,1.9c0.5,0,1-0.2,1.4-0.6
				s0.6-0.8,0.6-1.4s-0.2-1-0.6-1.4C290.1,149.1,289.7,148.9,289.1,148.9L289.1,148.9z"/>
			<path class="st4" d="M304.3,148.9c-0.4,0-0.8,0.2-1.1,0.5c-0.3,0.3-0.5,0.7-0.5,1.1c0,0.9,0.7,1.6,1.6,1.6c0.9,0,1.6-0.7,1.6-1.6
				C306,149.7,305.2,148.9,304.3,148.9L304.3,148.9z"/>
			<path class="st4" d="M271.6,150.5c-0.6,0-1.2,0.2-1.6,0.7c-0.4,0.4-0.7,1-0.7,1.6c0,0.6,0.2,1.2,0.7,1.6c0.4,0.4,1,0.7,1.6,0.7
				c1.2,0,2.3-1,2.3-2.3C273.9,151.5,272.8,150.5,271.6,150.5L271.6,150.5z"/>
			<path class="st2" d="M90.8,151c-0.5,0-0.9,0.2-1.3,0.5c-0.4,0.4-0.5,0.8-0.5,1.3s0.2,0.9,0.5,1.3s0.8,0.5,1.3,0.5
				c1,0,1.8-0.8,1.8-1.8c0-0.5-0.2-0.9-0.5-1.3C91.7,151.1,91.2,151,90.8,151L90.8,151z"/>
			<path class="st3" d="M237.3,154.5c-0.7,0-1.4,0.3-1.9,0.8c-0.5,0.5-0.8,1.2-0.8,1.9c0,1.5,1.2,2.7,2.7,2.7c0.7,0,1.4-0.3,1.9-0.8
				c0.5-0.5,0.8-1.2,0.8-1.9c0-0.7-0.3-1.4-0.8-1.9C238.8,154.8,238,154.5,237.3,154.5L237.3,154.5z"/>
			<path class="st2" d="M249.5,154.8c-1.5,0-2.6,1.1-2.6,2.6c0,1.5,1.1,2.6,2.6,2.6c1.5,0,2.6-1.1,2.6-2.6
				C252.1,155.9,250.9,154.8,249.5,154.8L249.5,154.8z"/>
			<path class="st3" d="M118,154.9c-0.6,0-1.2,0.3-1.6,0.7c-0.4,0.4-0.7,1-0.7,1.6c0,1.3,1.1,2.3,2.3,2.3s2.3-1.1,2.3-2.3
				c0-0.6-0.3-1.2-0.7-1.6C119.2,155.1,118.5,154.9,118,154.9L118,154.9z"/>
			<path class="st4" d="M81.1,155c-0.9,0-1.6,0.7-1.6,1.6c0,0.9,0.7,1.6,1.6,1.6c0.4,0,0.8-0.2,1.1-0.5c0.3-0.3,0.4-0.7,0.4-1.1
				c0-0.4-0.2-0.8-0.4-1.1C81.8,155.2,81.4,155,81.1,155L81.1,155z"/>
			<path class="st3" d="M280.2,155.6c-0.6,0-1.1,0.2-1.5,0.6s-0.6,0.9-0.6,1.5s0.2,1.1,0.6,1.5c0.4,0.4,0.9,0.6,1.5,0.6
				c0.6,0,1.1-0.2,1.5-0.6c0.4-0.4,0.6-0.9,0.6-1.5s-0.2-1.1-0.6-1.5C281.3,155.9,280.7,155.6,280.2,155.6L280.2,155.6z"/>
			<path class="st3" d="M296.7,155.9c-0.5,0-0.9,0.2-1.3,0.5s-0.5,0.8-0.5,1.3c0,0.5,0.2,0.9,0.5,1.3s0.8,0.5,1.3,0.5
				s0.9-0.2,1.3-0.5s0.5-0.8,0.5-1.3c0-0.5-0.2-0.9-0.5-1.3C297.7,156.1,297.2,155.9,296.7,155.9L296.7,155.9z"/>
			<path class="st2" d="M105.8,156.8c-1.1,0-2.1,0.9-2.1,2.1c0,1.1,0.9,2.1,2.1,2.1c1.1,0,2.1-0.9,2.1-2.1
				C107.9,157.8,106.9,156.8,105.8,156.8L105.8,156.8z"/>
			<path class="st3" d="M260,157.3c-0.7,0-1.3,0.3-1.8,0.7c-0.5,0.5-0.7,1.1-0.7,1.8c0,1.4,1.1,2.5,2.5,2.5c1.4,0,2.5-1.1,2.5-2.5
				S261.4,157.3,260,157.3L260,157.3z"/>
			<path class="st2" d="M311.2,157.5c-0.8,0-1.5,0.7-1.5,1.5s0.7,1.5,1.5,1.5s1.5-0.7,1.5-1.5C312.7,158.2,312,157.5,311.2,157.5
				L311.2,157.5z"/>
			<path class="st4" d="M222.3,157.9c-0.8,0-1.5,0.3-2,0.8s-0.8,1.3-0.8,2s0.3,1.5,0.8,2s1.3,0.8,2,0.8s1.5-0.3,2-0.8
				c0.5-0.5,0.8-1.3,0.8-2s-0.3-1.5-0.8-2C223.8,158.2,223,157.9,222.3,157.9L222.3,157.9z"/>
			<path class="st4" d="M94.9,160.2c-1.1,0-1.9,0.8-1.9,1.9c0,0.5,0.2,1,0.6,1.4c0.4,0.4,0.8,0.6,1.4,0.6c0.5,0,1-0.2,1.4-0.6
				c0.4-0.4,0.6-0.8,0.6-1.4C96.8,161.1,96,160.2,94.9,160.2L94.9,160.2z"/>
			<path class="st2" d="M269.3,161.7c-1.3,0-2.3,1.1-2.3,2.3c0,1.3,1.1,2.3,2.3,2.3s2.3-1.1,2.3-2.3
				C271.7,162.7,270.6,161.7,269.3,161.7L269.3,161.7z"/>
			<path class="st2" d="M287.8,162.2c-0.5,0-1.1,0.2-1.4,0.6c-0.4,0.4-0.6,0.9-0.6,1.4c0,1.1,0.9,2,2,2c1.1,0,2-0.9,2-2
				c0-0.5-0.2-1.1-0.6-1.4C288.9,162.4,288.4,162.2,287.8,162.2L287.8,162.2z"/>
			<path class="st2" d="M231,162.7c-1.5,0-2.8,1.2-2.8,2.8c0,0.8,0.3,1.5,0.8,2c0.5,0.5,1.2,0.8,2,0.8c0.8,0,1.5-0.3,2-0.8
				c0.5-0.5,0.8-1.2,0.8-2C233.9,164,232.6,162.7,231,162.7L231,162.7z"/>
			<path class="st3" d="M244.8,163.5c-1.5,0-2.7,1.2-2.7,2.7c0,0.7,0.3,1.4,0.8,1.9c0.5,0.5,1.2,0.8,1.9,0.8c0.7,0,1.4-0.3,1.9-0.8
				c0.5-0.5,0.8-1.2,0.8-1.9C247.5,164.7,246.3,163.5,244.8,163.5L244.8,163.5z"/>
			<path class="st4" d="M303.4,164.1c-0.4,0-0.9,0.2-1.2,0.5c-0.3,0.3-0.5,0.8-0.5,1.2c0,0.9,0.8,1.7,1.7,1.7c0.9,0,1.7-0.8,1.7-1.7
				C305.1,164.9,304.3,164.1,303.4,164.1L303.4,164.1z"/>
			<path class="st2" d="M85.2,164.7c-0.4,0-0.9,0.2-1.2,0.5c-0.3,0.3-0.5,0.8-0.5,1.2c0,0.9,0.8,1.7,1.7,1.7c0.4,0,0.9-0.2,1.2-0.5
				c0.3-0.3,0.5-0.8,0.5-1.2s-0.2-0.9-0.5-1.2C86,164.9,85.6,164.7,85.2,164.7L85.2,164.7z"/>
			<path class="st4" d="M255.9,166.8c-0.7,0-1.3,0.3-1.8,0.8c-0.5,0.5-0.8,1.1-0.8,1.8c0,0.7,0.3,1.3,0.8,1.8
				c0.5,0.5,1.1,0.8,1.8,0.8c0.7,0,1.3-0.3,1.8-0.8c0.5-0.5,0.8-1.1,0.8-1.8c0-0.7-0.3-1.3-0.8-1.8
				C257.2,167,256.6,166.8,255.9,166.8L255.9,166.8z"/>
			<path class="st4" d="M277.4,167.6c-1.2,0-2.2,1-2.2,2.2c0,0.6,0.2,1.1,0.7,1.6c0.4,0.4,1,0.7,1.6,0.7c0.6,0,1.1-0.2,1.6-0.7
				c0.4-0.4,0.7-1,0.7-1.6C279.7,168.5,278.7,167.6,277.4,167.6L277.4,167.6z"/>
			<path class="st3" d="M294.6,169.8c-0.5,0-1,0.2-1.3,0.6c-0.4,0.4-0.6,0.8-0.6,1.3c0,0.5,0.2,1,0.6,1.3c0.4,0.4,0.8,0.6,1.3,0.6
				s1-0.2,1.3-0.6c0.4-0.4,0.6-0.8,0.6-1.3s-0.2-1-0.6-1.3C295.6,170,295.1,169.8,294.6,169.8L294.6,169.8z"/>
			<path class="st3" d="M76.3,170.2c-0.4,0-0.8,0.2-1.1,0.4c-0.3,0.3-0.4,0.7-0.4,1.1s0.2,0.8,0.4,1.1c0.3,0.3,0.7,0.4,1.1,0.4
				s0.8-0.2,1.1-0.4c0.3-0.3,0.4-0.7,0.4-1.1s-0.2-0.8-0.4-1.1C77.1,170.4,76.7,170.2,76.3,170.2L76.3,170.2z"/>
			<path class="st3" d="M265.2,171.9c-1.3,0-2.5,1.1-2.5,2.5c0,1.3,1.1,2.5,2.5,2.5c1.4,0,2.5-1.1,2.5-2.5
				C267.6,173,266.5,171.9,265.2,171.9L265.2,171.9z"/>
			<path class="st3" d="M309.1,173.2c-0.9,0-1.5,0.7-1.5,1.6c0,0.9,0.7,1.5,1.5,1.6c0.9,0,1.6-0.7,1.6-1.6
				C310.7,173.9,310,173.2,309.1,173.2L309.1,173.2z"/>
			<path class="st3" d="M90.4,173.6c-1,0-1.9,0.8-1.9,1.9c0,0.5,0.2,1,0.5,1.3c0.4,0.4,0.8,0.5,1.3,0.5s1-0.2,1.3-0.5
				c0.4-0.4,0.5-0.8,0.5-1.3C92.3,174.4,91.4,173.6,90.4,173.6L90.4,173.6z"/>
			<path class="st2" d="M284.5,174.6c-1.1,0-2.1,0.9-2.1,2.1c0,0.6,0.2,1.1,0.6,1.5c0.4,0.4,0.9,0.6,1.5,0.6c0.6,0,1.1-0.2,1.5-0.6
				s0.6-0.9,0.6-1.5C286.6,175.6,285.7,174.6,284.5,174.6L284.5,174.6z"/>
			<path class="st2" d="M273,178.4c-0.6,0-1.2,0.2-1.6,0.7c-0.4,0.4-0.7,1-0.7,1.6s0.2,1.2,0.7,1.6c0.4,0.4,1,0.7,1.6,0.7
				c0.6,0,1.2-0.2,1.6-0.7c0.4-0.4,0.7-1,0.7-1.6s-0.2-1.2-0.7-1.6C274.2,178.6,273.6,178.4,273,178.4L273,178.4z"/>
			<path class="st2" d="M300.3,178.6c-1,0-1.8,0.8-1.8,1.8c0,1,0.8,1.8,1.8,1.8c0.5,0,0.9-0.2,1.2-0.5c0.4-0.4,0.5-0.8,0.5-1.2
				c0-0.5-0.2-0.9-0.5-1.2C301.2,178.7,300.8,178.6,300.3,178.6L300.3,178.6z"/>
			<path class="st4" d="M81.6,179.5c-0.9,0-1.6,0.8-1.6,1.6c0,0.4,0.2,0.8,0.5,1.1c0.3,0.3,0.7,0.5,1.1,0.5s0.8-0.2,1.1-0.5
				c0.3-0.3,0.5-0.7,0.5-1.1C83.2,180.3,82.4,179.5,81.6,179.5L81.6,179.5z"/>
			<path class="st4" d="M96.6,181.6c-0.5,0-1,0.2-1.4,0.6s-0.6,0.9-0.6,1.4c0,0.5,0.2,1,0.6,1.4s0.9,0.6,1.4,0.6
				c0.5,0,1-0.2,1.4-0.6c0.4-0.4,0.6-0.9,0.6-1.4C98.6,182.4,97.7,181.6,96.6,181.6L96.6,181.6z"/>
			<path class="st4" d="M290.5,182.9c-0.5,0-1,0.2-1.4,0.6c-0.4,0.4-0.6,0.9-0.6,1.4s0.2,1,0.6,1.4c0.4,0.4,0.9,0.6,1.4,0.6
				c0.5,0,1-0.2,1.4-0.6c0.4-0.4,0.6-0.9,0.6-1.4s-0.2-1-0.6-1.4C291.5,183.1,291,182.9,290.5,182.9L290.5,182.9z"/>
			<path class="st3" d="M279.5,186c-0.6,0-1.1,0.2-1.5,0.6s-0.6,1-0.6,1.5c0,0.6,0.2,1.1,0.6,1.5s1,0.6,1.5,0.6c1.2,0,2.2-1,2.2-2.2
				c0-0.6-0.2-1.1-0.6-1.5C280.6,186.3,280,186,279.5,186L279.5,186z"/>
			<path class="st3" d="M87.8,188c-1,0-1.8,0.8-1.8,1.8c0,1,0.8,1.8,1.8,1.8c0.5,0,0.9-0.2,1.2-0.5c0.3-0.3,0.5-0.8,0.5-1.2
				c0-0.5-0.2-0.9-0.5-1.2C88.7,188.1,88.3,188,87.8,188L87.8,188z"/>
			<path class="st4" d="M305,188.1c-0.9,0-1.6,0.8-1.6,1.6c0,0.9,0.8,1.6,1.6,1.6c0.9,0,1.6-0.8,1.6-1.6
				C306.7,188.8,305.9,188.1,305,188.1L305,188.1z"/>
			<path class="st3" d="M295.3,192c-1,0-1.9,0.8-1.9,1.9s0.8,1.9,1.9,1.9c0.5,0,1-0.2,1.3-0.5c0.3-0.4,0.5-0.8,0.5-1.3
				c0-0.5-0.2-1-0.5-1.3C296.2,192.2,295.8,192,295.3,192L295.3,192z"/>
			<path class="st2" d="M284.6,194.7c-0.5,0-1.1,0.2-1.5,0.6s-0.6,0.9-0.6,1.5s0.2,1.1,0.6,1.5c0.4,0.4,0.9,0.6,1.5,0.6
				c1.1,0,2-0.9,2-2C286.7,195.6,285.7,194.7,284.6,194.7L284.6,194.7z"/>
			<path class="st2" d="M80.1,195.1c-0.4,0-0.8,0.2-1.1,0.4c-0.3,0.3-0.4,0.7-0.4,1.1c0,0.8,0.7,1.5,1.5,1.5c0.4,0,0.8-0.2,1.1-0.4
				c0.3-0.3,0.4-0.7,0.4-1.1s-0.2-0.8-0.4-1.1C80.9,195.3,80.5,195.1,80.1,195.1L80.1,195.1z"/>
			<path class="st2" d="M308.6,198.5c-0.4,0-0.8,0.2-1.1,0.4c-0.3,0.3-0.4,0.7-0.4,1.1s0.2,0.8,0.4,1.1c0.3,0.3,0.7,0.4,1.1,0.4
				s0.8-0.2,1.1-0.4c0.3-0.3,0.4-0.7,0.4-1.1s-0.2-0.8-0.4-1.1C309.4,198.6,309,198.5,308.6,198.5L308.6,198.5z"/>
			<path class="st4" d="M298.9,201.9c-1,0-1.7,0.8-1.7,1.7c0,1,0.8,1.7,1.7,1.7c1,0,1.7-0.8,1.7-1.7S299.8,201.9,298.9,201.9
				L298.9,201.9z"/>
			<path class="st3" d="M87.3,202.9c-0.4,0-0.9,0.2-1.2,0.5c-0.3,0.3-0.5,0.8-0.5,1.2c0,0.9,0.8,1.7,1.7,1.7s1.7-0.8,1.7-1.7
				c0-0.4-0.2-0.9-0.5-1.2C88.2,203.1,87.8,202.9,87.3,202.9L87.3,202.9z"/>
			<path class="st3" d="M288.5,204.1c-0.5,0-1,0.2-1.4,0.6c-0.4,0.4-0.6,0.8-0.6,1.4c0,0.5,0.2,1,0.6,1.4c0.4,0.4,0.8,0.6,1.4,0.6
				c0.5,0,1-0.2,1.4-0.6c0.4-0.4,0.6-0.8,0.6-1.4C290.4,205,289.5,204.1,288.5,204.1L288.5,204.1z"/>
			<path class="st2" d="M277.2,205c-0.6,0-1.1,0.2-1.5,0.6s-0.6,0.9-0.6,1.5s0.2,1.1,0.6,1.5c0.4,0.4,0.9,0.6,1.5,0.6
				c0.6,0,1.1-0.2,1.5-0.6s0.6-0.9,0.6-1.5s-0.2-1.1-0.6-1.5C278.3,205.3,277.8,205,277.2,205L277.2,205z"/>
			<path class="st2" d="M95.3,209.6c-0.5,0-0.9,0.2-1.3,0.5s-0.5,0.8-0.5,1.3s0.2,0.9,0.5,1.3c0.4,0.4,0.8,0.5,1.3,0.5
				c1,0,1.8-0.8,1.8-1.8c0-0.5-0.2-0.9-0.5-1.3C96.3,209.8,95.8,209.6,95.3,209.6L95.3,209.6z"/>
			<path class="st2" d="M301.3,212.4c-0.9,0-1.6,0.7-1.6,1.6c0,0.4,0.2,0.8,0.5,1.1c0.3,0.3,0.7,0.5,1.1,0.5c0.4,0,0.8-0.2,1.1-0.5
				c0.3-0.3,0.5-0.7,0.5-1.1C302.9,213.1,302.2,212.4,301.3,212.4L301.3,212.4z"/>
			<path class="st4" d="M268.5,213.8c-1.2,0-2.2,1-2.2,2.2s1,2.2,2.2,2.2c1.2,0,2.2-1,2.2-2.2c0-0.6-0.2-1.1-0.7-1.5
				C269.7,214,269.1,213.8,268.5,213.8L268.5,213.8z"/>
			<path class="st4" d="M291,214.2c-1,0-1.8,0.8-1.8,1.8s0.8,1.8,1.8,1.8c1,0,1.8-0.8,1.8-1.8C292.9,215,292.1,214.2,291,214.2
				L291,214.2z"/>
			<path class="st3" d="M280.2,214.7c-1.1,0-2,0.9-2,2c0,0.5,0.2,1.1,0.6,1.4c0.4,0.4,0.9,0.6,1.4,0.6c0.5,0,1.1-0.2,1.4-0.6
				c0.4-0.4,0.6-0.9,0.6-1.4s-0.2-1.1-0.6-1.4C281.2,215,280.7,214.7,280.2,214.7L280.2,214.7z"/>
			<path class="st2" d="M246.2,215.4c-0.7,0-1.3,0.3-1.8,0.8c-0.5,0.5-0.8,1.1-0.8,1.8c0,1.4,1.1,2.5,2.5,2.5s2.5-1.1,2.5-2.5
				c0-0.7-0.3-1.3-0.8-1.8C247.4,215.7,246.8,215.4,246.2,215.4L246.2,215.4z"/>
			<path class="st4" d="M236.1,217.7c-1.4,0-2.6,1.1-2.6,2.6c0,0.7,0.3,1.3,0.8,1.8c0.5,0.5,1.1,0.8,1.8,0.8c0.7,0,1.3-0.3,1.8-0.8
				c0.5-0.5,0.8-1.1,0.8-1.8C238.7,218.9,237.5,217.7,236.1,217.7L236.1,217.7z"/>
			<path class="st4" d="M89.1,218.3c-0.9,0-1.6,0.7-1.6,1.6c0,0.9,0.7,1.6,1.6,1.6c0.4,0,0.8-0.2,1.1-0.5s0.5-0.7,0.5-1.1
				s-0.2-0.8-0.5-1.1C89.9,218.4,89.5,218.3,89.1,218.3L89.1,218.3z"/>
			<path class="st2" d="M113.1,219.2c-1.1,0-2.1,0.9-2.1,2.1c0,1.1,0.9,2.1,2.1,2.1c1.1,0,2.1-0.9,2.1-2.1
				C115.1,220.1,114.3,219.2,113.1,219.2L113.1,219.2z"/>
			<path class="st2" d="M258.9,220.6c-1.3,0-2.3,1-2.3,2.3c0,0.6,0.2,1.2,0.7,1.6c0.4,0.4,1,0.7,1.6,0.7c0.6,0,1.2-0.2,1.6-0.7
				c0.4-0.4,0.7-1,0.7-1.6C261.1,221.7,260.1,220.6,258.9,220.6L258.9,220.6z"/>
			<path class="st3" d="M270.6,223.6c-0.6,0-1.1,0.2-1.5,0.6c-0.4,0.4-0.6,0.9-0.6,1.5c0,1.1,0.9,2.1,2.1,2.1c0.5,0,1.1-0.2,1.5-0.6
				c0.4-0.4,0.6-0.9,0.6-1.5c0-0.6-0.2-1.1-0.6-1.5C271.7,223.8,271.2,223.6,270.6,223.6L270.6,223.6z"/>
			<path class="st3" d="M97.9,224.2c-1,0-1.7,0.8-1.7,1.7c0,1,0.8,1.7,1.7,1.7c1,0,1.7-0.8,1.7-1.7
				C99.6,224.9,98.8,224.2,97.9,224.2L97.9,224.2z"/>
			<path class="st3" d="M292.3,224.8c-0.9,0-1.7,0.8-1.7,1.7c0,0.4,0.2,0.9,0.5,1.2c0.3,0.3,0.8,0.5,1.2,0.5c0.9,0,1.7-0.8,1.7-1.7
				C294,225.5,293.3,224.8,292.3,224.8L292.3,224.8z"/>
			<path class="st2" d="M281.7,224.9c-0.5,0-1,0.2-1.3,0.5c-0.4,0.4-0.5,0.8-0.5,1.3c0,0.5,0.2,1,0.5,1.3c0.4,0.4,0.8,0.5,1.3,0.5
				s1-0.2,1.3-0.5c0.4-0.4,0.5-0.8,0.5-1.3c0-0.5-0.2-1-0.5-1.3C282.7,225.1,282.2,224.9,281.7,224.9L281.7,224.9z"/>
			<path class="st3" d="M248.5,225.5c-1.3,0-2.4,1.1-2.4,2.4c0,0.6,0.3,1.2,0.7,1.7c0.4,0.4,1.1,0.7,1.7,0.7c0.6,0,1.2-0.3,1.7-0.7
				s0.7-1.1,0.7-1.7C250.9,226.6,249.8,225.5,248.5,225.5L248.5,225.5z"/>
			<path class="st4" d="M217.3,227.3c-0.7,0-1.4,0.3-1.9,0.8c-0.5,0.5-0.8,1.1-0.8,1.9c0,0.7,0.3,1.4,0.8,1.9
				c0.5,0.5,1.1,0.8,1.9,0.8c1.4,0,2.6-1.1,2.6-2.6C219.9,228.4,218.7,227.3,217.3,227.3L217.3,227.3z"/>
			<path class="st2" d="M237.9,228.3c-1.4,0-2.5,1.1-2.5,2.5c0,1.4,1.1,2.5,2.5,2.5c0.7,0,1.3-0.3,1.7-0.7c0.4-0.4,0.7-1.1,0.7-1.7
				c0-0.7-0.3-1.3-0.7-1.7C239.2,228.5,238.6,228.3,237.9,228.3L237.9,228.3z"/>
			<path class="st4" d="M107.1,228.7c-0.5,0-1,0.2-1.3,0.5c-0.4,0.4-0.5,0.8-0.5,1.3c0,0.5,0.2,1,0.5,1.3c0.4,0.4,0.8,0.5,1.3,0.5
				c0.5,0,1-0.2,1.3-0.5c0.4-0.4,0.5-0.8,0.5-1.3s-0.2-1-0.5-1.3C108.1,228.9,107.7,228.7,107.1,228.7L107.1,228.7z"/>
			<path class="st3" d="M227.4,228.9c-1.4,0-2.5,1.1-2.5,2.5c0,0.7,0.3,1.3,0.8,1.8c0.5,0.5,1.1,0.8,1.8,0.8c1.4,0,2.5-1.1,2.5-2.5
				C229.9,230,228.8,228.9,227.4,228.9L227.4,228.9z"/>
			<path class="st4" d="M260.1,230.6c-0.6,0-1.1,0.2-1.5,0.6c-0.4,0.4-0.6,1-0.6,1.5c0,1.2,1,2.2,2.2,2.2c0.6,0,1.1-0.2,1.5-0.6
				c0.4-0.4,0.6-1,0.6-1.5c0-0.6-0.2-1.1-0.6-1.5C261.2,230.8,260.7,230.6,260.1,230.6L260.1,230.6z"/>
			<path class="st2" d="M116.8,232c-1.1,0-2,0.9-2,2c0,1.1,0.9,2,2,2c1.1,0,2-0.9,2-2C118.8,232.9,117.9,232,116.8,232L116.8,232z"
				/>
			<path class="st2" d="M93.2,233.6c-0.8,0-1.5,0.7-1.5,1.5s0.7,1.5,1.5,1.5c0.4,0,0.8-0.2,1.1-0.4c0.3-0.3,0.4-0.7,0.4-1.1
				c0-0.4-0.2-0.8-0.4-1.1C94,233.7,93.6,233.6,93.2,233.6L93.2,233.6z"/>
			<path class="st2" d="M271.2,233.8c-0.5,0-1,0.2-1.4,0.6s-0.6,0.9-0.6,1.4c0,0.5,0.2,1,0.6,1.4s0.9,0.6,1.4,0.6
				c0.5,0,1-0.2,1.4-0.6s0.6-0.9,0.6-1.4c0-0.5-0.2-1-0.6-1.4C272.2,234,271.7,233.8,271.2,233.8L271.2,233.8z"/>
			<path class="st4" d="M281.9,235.4c-0.5,0-0.9,0.2-1.2,0.5c-0.3,0.3-0.5,0.8-0.5,1.2c0,1,0.8,1.8,1.8,1.8c1,0,1.8-0.8,1.8-1.8
				c0-0.5-0.2-0.9-0.5-1.2C282.8,235.6,282.4,235.4,281.9,235.4L281.9,235.4z"/>
			<path class="st3" d="M249,235.6c-0.6,0-1.1,0.2-1.6,0.7c-0.4,0.4-0.7,1-0.7,1.6c0,0.6,0.2,1.1,0.7,1.6c0.4,0.4,1,0.7,1.6,0.7
				c1.2,0,2.3-1,2.3-2.3c0-0.6-0.2-1.1-0.7-1.6C250.2,235.8,249.6,235.6,249,235.6L249,235.6z"/>
			<path class="st2" d="M292.3,235.6c-0.8,0-1.5,0.7-1.5,1.5s0.7,1.5,1.5,1.5s1.5-0.7,1.5-1.5C293.8,236.3,293.1,235.6,292.3,235.6
				L292.3,235.6z"/>
			<path class="st3" d="M215.7,238c-0.7,0-1.3,0.3-1.8,0.7c-0.4,0.4-0.7,1.1-0.7,1.8c0,1.4,1.1,2.5,2.5,2.5s2.5-1.1,2.5-2.5
				c0-0.7-0.3-1.3-0.7-1.8C217,238.3,216.4,238,215.7,238L215.7,238z"/>
			<path class="st4" d="M237.7,238.5c-0.6,0-1.2,0.3-1.6,0.7c-0.4,0.4-0.7,1-0.7,1.6c0,1.3,1,2.3,2.3,2.3c0.6,0,1.2-0.3,1.6-0.7
				c0.4-0.4,0.7-1,0.7-1.6c0-0.6-0.3-1.2-0.7-1.6C238.9,238.8,238.3,238.5,237.7,238.5L237.7,238.5z"/>
			<path class="st3" d="M102.7,238.5c-0.9,0-1.6,0.8-1.6,1.6c0,0.9,0.8,1.6,1.6,1.6c0.9,0,1.6-0.8,1.6-1.6
				C104.4,239.3,103.6,238.5,102.7,238.5L102.7,238.5z"/>
			<path class="st2" d="M226.5,239.3c-0.6,0-1.2,0.3-1.7,0.7c-0.4,0.4-0.7,1.1-0.7,1.7c0,1.3,1.1,2.4,2.4,2.4c0.6,0,1.2-0.3,1.7-0.7
				c0.4-0.4,0.7-1.1,0.7-1.7c0-0.6-0.3-1.2-0.7-1.7C227.7,239.6,227.1,239.3,226.5,239.3L226.5,239.3z"/>
			<path class="st2" d="M259.8,240.7c-0.5,0-1.1,0.2-1.5,0.6c-0.4,0.4-0.6,0.9-0.6,1.5c0,0.5,0.2,1.1,0.6,1.5
				c0.4,0.4,0.9,0.6,1.5,0.6c0.5,0,1.1-0.2,1.5-0.6c0.4-0.4,0.6-0.9,0.6-1.5c0-0.5-0.2-1.1-0.6-1.5
				C260.8,240.9,260.3,240.7,259.8,240.7L259.8,240.7z"/>
			<path class="st2" d="M112.6,242.2c-1,0-1.8,0.8-1.8,1.8c0,0.5,0.2,0.9,0.5,1.2c0.4,0.4,0.8,0.5,1.2,0.5c0.5,0,0.9-0.2,1.2-0.5
				c0.4-0.4,0.5-0.8,0.5-1.2C114.3,243,113.6,242.2,112.6,242.2L112.6,242.2z"/>
			<path class="st4" d="M270.3,244.1c-0.5,0-1,0.2-1.3,0.5c-0.4,0.4-0.5,0.8-0.5,1.3c0,1,0.8,1.8,1.8,1.8c1,0,1.8-0.8,1.8-1.8
				c0-0.5-0.2-1-0.5-1.3C271.3,244.3,270.8,244.1,270.3,244.1L270.3,244.1z"/>
			<path class="st3" d="M122.6,244.5c-1.1,0-1.9,0.8-1.9,1.9c0,0.5,0.2,1,0.6,1.3c0.4,0.4,0.8,0.6,1.3,0.6c0.5,0,1-0.2,1.3-0.6
				s0.6-0.8,0.6-1.3C124.5,245.3,123.6,244.5,122.6,244.5L122.6,244.5z"/>
			<path class="st3" d="M142.6,244.7c-0.6,0-1.1,0.2-1.5,0.6s-0.6,1-0.6,1.5c0,0.6,0.2,1.1,0.6,1.5s1,0.6,1.5,0.6
				c0.6,0,1.1-0.2,1.5-0.6c0.4-0.4,0.6-1,0.6-1.5c0-0.6-0.2-1.1-0.6-1.5S143.2,244.7,142.6,244.7L142.6,244.7z"/>
			<path class="st2" d="M132.7,245.3c-0.5,0-1.1,0.2-1.4,0.6c-0.4,0.4-0.6,0.9-0.6,1.4c0,1.1,0.9,2,2,2c1.1,0,2-0.9,2-2
				c0-0.5-0.2-1.1-0.6-1.4C133.7,245.6,133.2,245.3,132.7,245.3L132.7,245.3z"/>
			<path class="st2" d="M247.8,245.6c-0.6,0-1.1,0.2-1.5,0.6c-0.4,0.4-0.6,0.9-0.6,1.5c0,0.6,0.2,1.1,0.6,1.5
				c0.4,0.4,0.9,0.6,1.5,0.6s1.1-0.2,1.5-0.6c0.4-0.4,0.6-0.9,0.6-1.5c0-0.6-0.2-1.1-0.6-1.5C248.9,245.8,248.4,245.6,247.8,245.6
				L247.8,245.6z"/>
			<path class="st3" d="M280.7,246c-0.9,0-1.6,0.7-1.6,1.6c0,0.9,0.7,1.6,1.6,1.6c0.9,0,1.6-0.7,1.6-1.6
				C282.3,246.8,281.6,246,280.7,246L280.7,246z"/>
			<path class="st2" d="M212.3,247.8c-1.3,0-2.3,1.1-2.3,2.3c0,1.3,1.1,2.3,2.3,2.3c0.6,0,1.2-0.3,1.7-0.7c0.4-0.4,0.7-1,0.7-1.7
				c0-0.6-0.3-1.2-0.7-1.7C213.5,248,212.9,247.8,212.3,247.8L212.3,247.8z"/>
			<path class="st3" d="M235.7,248.4c-0.6,0-1.1,0.2-1.5,0.7c-0.4,0.4-0.7,1-0.7,1.5c0,0.6,0.2,1.1,0.7,1.5c0.4,0.4,1,0.7,1.5,0.7
				c0.6,0,1.1-0.2,1.5-0.7c0.4-0.4,0.7-1,0.7-1.5c0-0.6-0.2-1.1-0.7-1.5C236.9,248.6,236.3,248.4,235.7,248.4L235.7,248.4z"/>
			<path class="st4" d="M223.8,249.1c-0.6,0-1.2,0.2-1.6,0.7c-0.4,0.4-0.7,1-0.7,1.6c0,0.6,0.2,1.2,0.7,1.6c0.4,0.4,1,0.7,1.6,0.7
				c0.6,0,1.2-0.2,1.6-0.7c0.4-0.4,0.7-1,0.7-1.6c0-0.6-0.2-1.2-0.7-1.6C224.9,249.3,224.3,249.1,223.8,249.1L223.8,249.1z"/>
			<path class="st3" d="M258,250.8c-1.1,0-1.9,0.8-1.9,1.9c0,0.5,0.2,1,0.6,1.4c0.4,0.4,0.8,0.6,1.4,0.6c0.5,0,1-0.2,1.4-0.6
				c0.4-0.4,0.6-0.8,0.6-1.4C259.9,251.6,259,250.8,258,250.8L258,250.8z"/>
			<path class="st4" d="M109.7,252.4c-0.9,0-1.6,0.7-1.6,1.6c0,0.4,0.2,0.8,0.4,1.1c0.3,0.3,0.7,0.4,1.1,0.4c0.4,0,0.8-0.2,1.1-0.4
				c0.3-0.3,0.4-0.7,0.4-1.1C111.3,253.1,110.6,252.4,109.7,252.4L109.7,252.4z"/>
			<path class="st2" d="M268.1,254.4c-0.9,0-1.7,0.8-1.7,1.7c0,0.9,0.8,1.7,1.7,1.7c0.9,0,1.7-0.8,1.7-1.7
				C269.8,255.2,269,254.4,268.1,254.4L268.1,254.4z"/>
			<path class="st2" d="M150.6,254.6c-1.1,0-2.1,0.9-2.1,2.1c0,0.5,0.2,1.1,0.6,1.5s0.9,0.6,1.5,0.6s1.1-0.2,1.5-0.6
				c0.4-0.4,0.6-0.9,0.6-1.5C152.7,255.6,151.8,254.6,150.6,254.6L150.6,254.6z"/>
			<path class="st4" d="M120.1,255c-0.9,0-1.7,0.8-1.7,1.7c0,0.9,0.8,1.7,1.7,1.7c0.4,0,0.9-0.2,1.2-0.5c0.3-0.3,0.5-0.8,0.5-1.2
				c0-0.4-0.2-0.9-0.5-1.2C121,255.2,120.5,255,120.1,255L120.1,255z"/>
			<path class="st4" d="M245.1,255.3c-1.1,0-2,0.9-2,2s0.9,2,2,2c0.5,0,1-0.2,1.4-0.6c0.4-0.4,0.6-0.9,0.6-1.4c0-0.5-0.2-1-0.6-1.4
				C246.2,255.6,245.6,255.3,245.1,255.3L245.1,255.3z"/>
			<path class="st4" d="M140.7,256.2c-0.5,0-1,0.2-1.4,0.6c-0.4,0.4-0.6,0.8-0.6,1.4s0.2,1,0.6,1.4c0.4,0.4,0.9,0.6,1.4,0.6
				c1.1,0,1.9-0.9,1.9-1.9C142.6,257,141.8,256.2,140.7,256.2L140.7,256.2z"/>
			<path class="st3" d="M130.5,256.3c-1,0-1.8,0.8-1.8,1.8c0,1,0.8,1.8,1.8,1.8c0.5,0,0.9-0.2,1.3-0.5s0.5-0.8,0.5-1.3
				c0-0.5-0.2-0.9-0.5-1.3S130.9,256.3,130.5,256.3L130.5,256.3z"/>
			<path class="st4" d="M278.1,256.7c-0.8,0-1.5,0.7-1.5,1.5s0.7,1.5,1.5,1.5c0.4,0,0.8-0.2,1.1-0.4c0.3-0.3,0.4-0.7,0.4-1.1
				C279.7,257.4,279,256.7,278.1,256.7L278.1,256.7z"/>
			<path class="st2" d="M232.2,257.8c-0.5,0-1.1,0.2-1.5,0.6c-0.4,0.4-0.6,0.9-0.6,1.5c0,1.1,0.9,2.1,2.1,2.1c0.5,0,1.1-0.2,1.5-0.6
				c0.4-0.4,0.6-0.9,0.6-1.5c0-0.5-0.2-1.1-0.6-1.5C233.2,258,232.7,257.8,232.2,257.8L232.2,257.8z"/>
			<path class="st2" d="M219.4,258.2c-0.6,0-1.1,0.2-1.5,0.6c-0.4,0.4-0.6,0.9-0.6,1.5c0,0.6,0.2,1.1,0.6,1.5
				c0.4,0.4,0.9,0.6,1.5,0.6s1.1-0.2,1.5-0.6c0.4-0.4,0.6-0.9,0.6-1.5C221.6,259.1,220.6,258.2,219.4,258.2L219.4,258.2z"/>
			<path class="st4" d="M254.7,260.7c-1,0-1.8,0.8-1.8,1.8c0,1,0.8,1.8,1.8,1.8c1,0,1.8-0.8,1.8-1.8
				C256.5,261.5,255.7,260.7,254.7,260.7L254.7,260.7z"/>
			<path class="st3" d="M264.4,264.6c-0.4,0-0.8,0.2-1.1,0.4c-0.3,0.3-0.4,0.7-0.4,1.1s0.2,0.8,0.4,1.1c0.3,0.3,0.7,0.4,1.1,0.4
				c0.9,0,1.6-0.7,1.6-1.6C266,265.3,265.3,264.6,264.4,264.6L264.4,264.6z"/>
			<path class="st3" d="M241,264.8c-1,0-1.9,0.8-1.9,1.9c0,1,0.8,1.9,1.9,1.9c0.5,0,1-0.2,1.3-0.5c0.4-0.4,0.5-0.8,0.5-1.3
				s-0.2-1-0.5-1.3C241.9,265,241.5,264.8,241,264.8L241,264.8z"/>
			<path class="st2" d="M118.9,265.5c-0.4,0-0.8,0.2-1.1,0.4c-0.3,0.3-0.4,0.7-0.4,1.1s0.2,0.8,0.4,1.1c0.3,0.3,0.7,0.4,1.1,0.4
				c0.8,0,1.5-0.7,1.5-1.5S119.8,265.5,118.9,265.5L118.9,265.5z"/>
			<path class="st3" d="M150.6,266c-0.5,0-1,0.2-1.3,0.5c-0.4,0.4-0.5,0.8-0.5,1.3c0,1,0.8,1.9,1.9,1.9s1.9-0.8,1.9-1.9
				S151.6,266,150.6,266L150.6,266z"/>
			<path class="st4" d="M213.7,266.5c-1.1,0-2,0.9-2,2c0,0.5,0.2,1.1,0.6,1.4c0.4,0.4,0.9,0.6,1.4,0.6s1.1-0.2,1.4-0.6
				c0.4-0.4,0.6-0.9,0.6-1.4C215.7,267.4,214.8,266.5,213.7,266.5L213.7,266.5z"/>
			<path class="st4" d="M227.2,266.7c-1.1,0-1.9,0.9-1.9,1.9c0,1.1,0.9,1.9,1.9,1.9c1.1,0,1.9-0.9,1.9-1.9
				C229.1,267.6,228.3,266.7,227.2,266.7L227.2,266.7z"/>
			<path class="st4" d="M129.7,267c-0.9,0-1.6,0.7-1.6,1.6c0,0.9,0.7,1.6,1.6,1.6c0.4,0,0.8-0.2,1.1-0.5s0.5-0.7,0.5-1.1
				c0-0.4-0.2-0.8-0.5-1.1C130.5,267.1,130.1,267,129.7,267L129.7,267z"/>
			<path class="st2" d="M140.3,267.1c-1,0-1.8,0.8-1.8,1.8c0,1,0.8,1.8,1.8,1.8c0.4,0,0.9-0.2,1.2-0.5c0.3-0.3,0.5-0.8,0.5-1.2
				c0-0.4-0.2-0.9-0.5-1.2C141.2,267.3,140.7,267.1,140.3,267.1L140.3,267.1z"/>
			<path class="st2" d="M250.1,270.3c-0.4,0-0.8,0.2-1.2,0.5c-0.3,0.3-0.5,0.8-0.5,1.2c0,0.9,0.8,1.7,1.7,1.7s1.7-0.8,1.7-1.7
				c0-0.4-0.2-0.8-0.5-1.2C251,270.5,250.5,270.3,250.1,270.3L250.1,270.3z"/>
			<path class="st2" d="M235.5,273.7c-0.4,0-0.9,0.2-1.2,0.5c-0.3,0.3-0.5,0.8-0.5,1.2c0,1,0.8,1.7,1.7,1.7c1,0,1.7-0.8,1.7-1.7
				C237.2,274.5,236.5,273.7,235.5,273.7L235.5,273.7z"/>
			<path class="st2" d="M220.9,274.9c-1,0-1.8,0.8-1.8,1.8s0.8,1.8,1.8,1.8s1.8-0.8,1.8-1.8c0-0.5-0.2-0.9-0.5-1.3
				C221.9,275.1,221.4,274.9,220.9,274.9L220.9,274.9z"/>
			<path class="st4" d="M151.9,276.7c-0.4,0-0.9,0.2-1.2,0.5c-0.3,0.3-0.5,0.8-0.5,1.2s0.2,0.9,0.5,1.2c0.3,0.3,0.8,0.5,1.2,0.5
				c0.9,0,1.7-0.8,1.7-1.7C153.6,277.4,152.8,276.7,151.9,276.7L151.9,276.7z"/>
			<path class="st3" d="M141.2,277.7c-0.8,0-1.5,0.7-1.5,1.5s0.7,1.5,1.5,1.5c0.4,0,0.8-0.2,1.1-0.4c0.3-0.3,0.4-0.7,0.4-1.1
				c0-0.4-0.2-0.8-0.4-1.1C142,277.8,141.6,277.7,141.2,277.7L141.2,277.7z"/>
			<path class="st3" d="M244.3,279.5c-0.8,0-1.5,0.7-1.5,1.5s0.7,1.5,1.5,1.5c0.4,0,0.8-0.2,1.1-0.4c0.3-0.3,0.4-0.7,0.4-1.1
				c0-0.4-0.2-0.8-0.4-1.1C245.1,279.6,244.7,279.5,244.3,279.5L244.3,279.5z"/>
			<path class="st3" d="M175.3,281.2c-0.9,0-1.7,0.8-1.7,1.7c0,0.4,0.2,0.9,0.5,1.2c0.3,0.3,0.8,0.5,1.2,0.5c0.4,0,0.9-0.2,1.2-0.5
				c0.3-0.3,0.5-0.8,0.5-1.2C177,282,176.3,281.2,175.3,281.2L175.3,281.2z"/>
			<path class="st3" d="M228.7,282.1c-0.9,0-1.6,0.7-1.6,1.6c0,0.9,0.7,1.6,1.6,1.6c0.9,0,1.6-0.7,1.6-1.6
				C230.3,282.8,229.6,282.1,228.7,282.1L228.7,282.1z"/>
			<path class="st2" d="M165.1,284.6c-0.9,0-1.6,0.7-1.6,1.6c0,0.4,0.2,0.8,0.5,1.1c0.3,0.3,0.7,0.5,1.1,0.5c0.4,0,0.8-0.2,1.1-0.5
				c0.3-0.3,0.5-0.7,0.5-1.1c0-0.4-0.2-0.8-0.5-1.1C166,284.8,165.6,284.6,165.1,284.6L165.1,284.6z"/>
			<path class="st2" d="M189.6,286.2c-0.4,0-0.8,0.2-1.1,0.5c-0.3,0.3-0.5,0.7-0.5,1.1s0.2,0.8,0.5,1.1c0.3,0.3,0.7,0.5,1.1,0.5
				c0.4,0,0.8-0.2,1.1-0.5s0.5-0.7,0.5-1.1s-0.2-0.8-0.5-1.1C190.5,286.3,190,286.2,189.6,286.2L189.6,286.2z"/>
			<path class="st4" d="M179.8,290.7c-0.4,0-0.8,0.2-1.1,0.4c-0.3,0.3-0.4,0.7-0.4,1.1c0,0.8,0.7,1.5,1.5,1.5c0.8,0,1.5-0.7,1.5-1.5
				c0-0.4-0.2-0.8-0.4-1.1C180.5,290.9,180.2,290.7,179.8,290.7L179.8,290.7z"/>
			<path class="st5" d="M179.8,290.7"/>
		</g>
	</g>
	<g>
		<g>
			<path class="st1" d="M367.2,138.4c0.7,0,1.2,0.3,1.3,1c0.6,3.2,3.4,5.2,9.4,5.2s8.8-2.3,8.8-5c0-1.8-1.3-3.4-5.1-3.6l-9.9-0.9
				c-7.7-0.6-11.9-4.2-11.9-9.9c0-6.6,5.8-12.7,17-12.7c11.6,0,16.7,5.4,16.7,11.5c0,0.6-0.4,1.1-1.3,1.1H386c-0.6,0-1-0.2-1.2-1
				c-0.4-2.2-2.6-4.4-8.2-4.4c-5.3,0-8.3,2.2-8.3,5c0,1.7,1.2,3,4.6,3.2l9.9,0.9c8.9,0.7,12.4,5.2,12.4,10.5c0,6-5.2,12.6-17.4,12.6
				c-11.6,0-18.1-5.5-18.1-11.8v-0.5c0-0.6,0.5-1.2,1.3-1.2L367.2,138.4L367.2,138.4z"/>
			<path class="st1" d="M427.5,144.7h-18.6l-2.7,5.8c-0.4,0.7-0.6,0.9-1.3,0.9h-7.6c-0.4,0-0.5-0.3-0.5-0.4c0-0.2,0.1-0.5,0.3-0.7
				l18-36.9h6.6l18,36.9c0.1,0.3,0.3,0.6,0.3,0.7c0,0.2-0.1,0.4-0.5,0.4h-7.6c-0.7,0-1-0.1-1.3-0.9L427.5,144.7z M412.1,137.9h12.5
				l-3.4-7c-1.3-2.7-2.7-6.8-2.7-6.8h-0.4c0,0-1.3,4-2.7,6.8L412.1,137.9z"/>
			<path class="st1" d="M472,128.6c-0.6,0-1-0.3-1.1-1c-0.6-4.4-4.6-7.7-10.3-7.7c-6.6,0-11.9,5-11.9,12.5c0,7.4,5.1,12.5,11.9,12.5
				c5.8,0,9.6-2.9,10.3-7.1c0.1-0.9,0.4-1.1,1.3-1.1h6.3c0.5,0,1.1,0.3,1.1,1c0,8.2-7.7,14.5-19,14.5c-11.5,0-20.6-7.9-20.6-19.7
				c0-11.7,9-19.7,20.6-19.7c12.1,0,19,7.6,19,15.2c0,0.4-0.3,0.9-1,0.9L472,128.6L472,128.6z"/>
			<path class="st1" d="M525.6,150.5c0,0.4-0.4,0.7-0.7,0.7h-7.1c-0.4,0-0.7-0.4-0.7-0.7V137H495v13.5c0,0.4-0.4,0.7-0.7,0.7h-7.1
				c-0.4,0-0.7-0.4-0.7-0.7v-36.6c0-0.4,0.4-0.7,0.7-0.7h7.1c0.4,0,0.7,0.4,0.7,0.7v15.8H517v-15.8c0-0.4,0.4-0.7,0.7-0.7h7.1
				c0.4,0,0.7,0.4,0.7,0.7V150.5z"/>
			<path class="st1" d="M540,138.4c0.7,0,1.2,0.3,1.3,1c0.6,3.2,3.4,5.2,9.4,5.2s8.8-2.3,8.8-5c0-1.8-1.3-3.4-5.1-3.6l-9.9-0.9
				c-7.7-0.6-11.9-4.2-11.9-9.9c0-6.6,5.8-12.7,17-12.7c11.6,0,16.7,5.4,16.7,11.5c0,0.6-0.4,1.1-1.3,1.1h-6.2c-0.6,0-1-0.2-1.2-1
				c-0.4-2.2-2.6-4.4-8.2-4.4c-5.3,0-8.3,2.2-8.3,5c0,1.7,1.2,3,4.6,3.2l9.9,0.9c8.9,0.7,12.4,5.2,12.4,10.5c0,6-5.2,12.6-17.4,12.6
				c-11.6,0-18.1-5.5-18.1-11.8v-0.5c0-0.6,0.5-1.2,1.3-1.2L540,138.4L540,138.4z"/>
			<path class="st1" d="M583.3,135.4v8.6h22.3c0.4,0,0.9,0.5,0.9,0.9v5.5c0,0.4-0.5,0.9-0.9,0.9h-30.2c-0.4,0-0.7-0.4-0.7-0.7V114
				c0-0.4,0.4-0.7,0.7-0.7h29.9c0.4,0,0.9,0.5,0.9,0.9v5.5c0,0.4-0.5,0.9-0.9,0.9h-22v7.7h20.1c0.4,0,0.9,0.5,0.9,0.9v5.5
				c0,0.4-0.5,0.9-0.9,0.9h-20.1V135.4z"/>
			<path class="st1" d="M646,151.3l-19.4-19.8c-2-2-4.3-4.9-4.3-4.9H622v23.9c0,0.4-0.4,0.7-0.7,0.7h-7.1c-0.4,0-0.7-0.4-0.7-0.7
				v-36.6c0-0.4,0.4-0.7,0.7-0.7h5.9l19.3,19.6c2.1,2.1,4.5,5.2,4.5,5.2h0.3V114c0-0.4,0.4-0.7,0.7-0.7h7.1c0.4,0,0.7,0.4,0.7,0.7
				v36.6c0,0.4-0.4,0.7-0.7,0.7L646,151.3L646,151.3z"/>
			<path class="st1" d="M660.1,139.5v-5.9H676v5.9H660.1z"/>
			<path class="st1" d="M708.5,144.7h-18.6l-2.7,5.8c-0.4,0.7-0.6,0.9-1.3,0.9h-7.6c-0.4,0-0.5-0.3-0.5-0.4c0-0.2,0.1-0.5,0.3-0.7
				l18-36.9h6.6l18,36.9c0.1,0.3,0.3,0.6,0.3,0.7c0,0.2-0.1,0.4-0.5,0.4h-7.6c-0.7,0-1-0.1-1.3-0.9L708.5,144.7z M693,137.9h12.5
				l-3.4-7c-1.3-2.7-2.7-6.8-2.7-6.8H699c0,0-1.3,4-2.7,6.8L693,137.9z"/>
			<path class="st1" d="M757.7,151.3l-19.4-19.8c-2-2-4.3-4.9-4.3-4.9h-0.2v23.9c0,0.4-0.4,0.7-0.7,0.7h-7.1c-0.4,0-0.7-0.4-0.7-0.7
				v-36.6c0-0.4,0.4-0.7,0.7-0.7h5.9l19.3,19.6c2.1,2.1,4.5,5.2,4.5,5.2h0.3V114c0-0.4,0.4-0.7,0.7-0.7h7.1c0.4,0,0.7,0.4,0.7,0.7
				v36.6c0,0.4-0.4,0.7-0.7,0.7L757.7,151.3L757.7,151.3z"/>
			<path class="st1" d="M812.2,150.5c0,0.4-0.4,0.7-0.7,0.7h-7.1c-0.4,0-0.7-0.4-0.7-0.7V137h-21.9v13.5c0,0.4-0.4,0.7-0.7,0.7h-7.1
				c-0.4,0-0.7-0.4-0.7-0.7v-36.6c0-0.4,0.4-0.7,0.7-0.7h7.1c0.4,0,0.7,0.4,0.7,0.7v15.8h21.9v-15.8c0-0.4,0.4-0.7,0.7-0.7h7.1
				c0.4,0,0.7,0.4,0.7,0.7L812.2,150.5L812.2,150.5z"/>
			<path class="st1" d="M847.3,144.7h-18.5l-2.7,5.8c-0.4,0.7-0.6,0.9-1.3,0.9h-7.6c-0.4,0-0.5-0.3-0.5-0.4c0-0.2,0.1-0.5,0.3-0.7
				l18-36.9h6.6l18,36.9c0.1,0.3,0.3,0.6,0.3,0.7c0,0.2-0.1,0.4-0.5,0.4h-7.8c-0.7,0-1-0.1-1.3-0.9L847.3,144.7z M831.8,137.9h12.5
				l-3.4-7c-1.3-2.7-2.7-6.8-2.7-6.8h-0.4c0,0-1.3,4-2.7,6.8L831.8,137.9z"/>
			<path class="st1" d="M872.5,144h18.8c0.4,0,0.9,0.5,0.9,0.9v5.5c0,0.4-0.5,0.9-0.9,0.9h-26.7c-0.4,0-0.7-0.4-0.7-0.7V114
				c0-0.4,0.4-0.7,0.7-0.7h7.1c0.4,0,0.7,0.4,0.7,0.7V144L872.5,144z"/>
			<path class="st1" d="M888.1,120.4c-0.4,0-0.9-0.5-0.9-0.9V114c0-0.4,0.5-0.9,0.9-0.9h36.1c0.4,0,0.9,0.5,0.9,0.9v5.5
				c0,0.4-0.5,0.9-0.9,0.9h-13.7v30.2c0,0.4-0.4,0.7-0.7,0.7h-7.1c-0.4,0-0.7-0.4-0.7-0.7v-30.2H888.1z"/>
		</g>
		<g>
			<g>
				<path class="st1" d="M378.7,199.1c0,4.5-3.2,8.2-9.3,8.2c-5.3,0-9.7-3.5-9.7-9.1c0-5.4,4.2-9.1,9.7-9.1c6.1,0,8.6,3.7,8.7,6.3
					c0,0.2-0.1,0.4-0.5,0.4h-3c-0.2,0-0.4-0.1-0.4-0.3c-0.3-1.4-1.7-3.1-4.7-3.1c-3.2,0-5.7,2.4-5.7,5.7c0,3.7,2.7,5.7,5.7,5.7
					c3.2,0,5.1-1.6,5.2-3.3h-6.5c-0.2,0-0.4-0.2-0.4-0.4V198c0-0.2,0.2-0.4,0.4-0.4h10.5V199.1z"/>
				<path class="st1" d="M385.9,199.6v4h10.3c0.2,0,0.4,0.2,0.4,0.4v2.5c0,0.2-0.2,0.4-0.4,0.4h-13.9c-0.2,0-0.4-0.2-0.4-0.4v-16.9
					c0-0.2,0.2-0.4,0.4-0.4h13.8c0.2,0,0.4,0.2,0.4,0.4v2.5c0,0.2-0.2,0.4-0.4,0.4h-10.1v3.6h9.3c0.2,0,0.4,0.2,0.4,0.4v2.5
					c0,0.2-0.2,0.4-0.4,0.4H385.9z"/>
				<path class="st1" d="M420.1,189.4c0.2,0,0.4,0.2,0.4,0.4v16.9c0,0.2-0.2,0.4-0.4,0.4h-3.3c-0.2,0-0.4-0.2-0.4-0.4v-10.8h-0.1
					c0,0-0.4,0.9-1.1,1.9l-5.2,7.3l-5.2-7.3c-0.7-1-1.1-1.9-1.1-1.9h-0.1v10.8c0,0.2-0.2,0.4-0.4,0.4h-3.3c-0.2,0-0.4-0.2-0.4-0.4
					v-16.9c0-0.2,0.2-0.4,0.4-0.4h2.6c0.2,0,0.4,0.1,0.6,0.3l6.8,9.6h0.1l6.8-9.6c0.1-0.2,0.4-0.3,0.6-0.3H420.1z"/>
				<path class="st1" d="M428.6,199.6v4h10.3c0.2,0,0.4,0.2,0.4,0.4v2.5c0,0.2-0.2,0.4-0.4,0.4h-13.9c-0.2,0-0.4-0.2-0.4-0.4v-16.9
					c0-0.2,0.2-0.4,0.4-0.4h13.8c0.2,0,0.4,0.2,0.4,0.4v2.5c0,0.2-0.2,0.4-0.4,0.4h-10.1v3.6h9.3c0.2,0,0.4,0.2,0.4,0.4v2.5
					c0,0.2-0.2,0.4-0.4,0.4H428.6z"/>
				<path class="st1" d="M446.4,206.6c0,0.2-0.2,0.4-0.4,0.4h-3.3c-0.2,0-0.4-0.2-0.4-0.4v-16.9c0-0.2,0.2-0.4,0.4-0.4h3.3
					c0.2,0,0.4,0.2,0.4,0.4V206.6z"/>
				<path class="st1" d="M465.6,207l-9-9.1c-0.9-0.9-2-2.3-2-2.3h-0.1v11c0,0.2-0.2,0.4-0.4,0.4h-3.3c-0.2,0-0.4-0.2-0.4-0.4v-16.9
					c0-0.2,0.2-0.4,0.4-0.4h2.7l8.9,9c1,1,2.1,2.4,2.1,2.4h0.1v-11c0-0.2,0.2-0.4,0.4-0.4h3.3c0.2,0,0.4,0.2,0.4,0.4v16.9
					c0,0.2-0.2,0.4-0.4,0.4H465.6z"/>
				<path class="st1" d="M475.3,201.1c0.4,0,0.5,0.1,0.6,0.4c0.3,1.5,1.6,2.4,4.3,2.4c2.8,0,4.1-1.1,4.1-2.3c0-0.8-0.6-1.6-2.3-1.7
					l-4.6-0.4c-3.6-0.3-5.5-1.9-5.5-4.6c0-3,2.7-5.9,7.9-5.9c5.4,0,7.7,2.5,7.7,5.3c0,0.3-0.2,0.5-0.6,0.5H484
					c-0.3,0-0.5-0.1-0.5-0.4c-0.2-1-1.2-2-3.8-2c-2.5,0-3.8,1-3.8,2.3c0,0.8,0.5,1.4,2.1,1.5l4.5,0.4c4.1,0.4,5.7,2.4,5.7,4.8
					c0,2.8-2.4,5.8-8.1,5.8c-5.4,0-8.3-2.5-8.3-5.4v-0.2c0-0.3,0.2-0.5,0.6-0.5H475.3z"/>
				<path class="st1" d="M503.9,203.9h-8.6l-1.3,2.7c-0.2,0.4-0.3,0.4-0.6,0.4h-3.5c-0.2,0-0.2-0.1-0.2-0.2c0-0.1,0.1-0.2,0.1-0.4
					l8.3-17h3l8.3,17c0.1,0.1,0.1,0.3,0.1,0.4c0,0.1-0.1,0.2-0.2,0.2h-3.5c-0.4,0-0.4,0-0.6-0.4L503.9,203.9z M496.7,200.8h5.8
					l-1.6-3.3c-0.6-1.3-1.2-3.1-1.2-3.1h-0.2c0,0-0.6,1.9-1.2,3.1L496.7,200.8z"/>
				<path class="st1" d="M532.2,189.4c0.2,0,0.4,0.2,0.4,0.4v16.9c0,0.2-0.2,0.4-0.4,0.4h-3.3c-0.2,0-0.4-0.2-0.4-0.4v-10.8h-0.1
					c0,0-0.4,0.9-1.1,1.9l-5.2,7.3l-5.2-7.3c-0.7-1-1.1-1.9-1.1-1.9h-0.1v10.8c0,0.2-0.2,0.4-0.4,0.4h-3.3c-0.2,0-0.4-0.2-0.4-0.4
					v-16.9c0-0.2,0.2-0.4,0.4-0.4h2.6c0.2,0,0.4,0.1,0.6,0.3l6.8,9.6h0.1l6.8-9.6c0.1-0.2,0.4-0.3,0.6-0.3H532.2z"/>
				<path class="st1" d="M543.5,207c-0.2,0-0.4-0.2-0.4-0.4v-16.9c0-0.2,0.2-0.4,0.4-0.4h13.2c0.2,0,0.4,0.2,0.4,0.4v2.5
					c0,0.2-0.2,0.4-0.4,0.4h-9.6v4.4h8.6c0.2,0,0.4,0.2,0.4,0.4v2.5c0,0.2-0.2,0.4-0.4,0.4h-8.6v6.2c0,0.2-0.2,0.4-0.4,0.4H543.5z"
					/>
				<path class="st1" d="M573.7,189.7c0-0.2,0.2-0.4,0.4-0.4h3.3c0.2,0,0.4,0.2,0.4,0.4v8.8c0,5.7-3.6,8.7-9,8.7s-9-3-9-8.7v-8.8
					c0-0.2,0.2-0.4,0.4-0.4h3.3c0.2,0,0.4,0.2,0.4,0.4v8.8c0,3.6,1.8,5.4,5,5.4s5-1.8,5-5.4V189.7z M565.9,183.9
					c1.1,0,1.9,0.8,1.9,1.9c0,1.1-0.8,1.9-1.9,1.9c-1.1,0-1.9-0.8-1.9-1.9C563.9,184.8,564.8,183.9,565.9,183.9z M571.5,183.9
					c1.1,0,1.9,0.8,1.9,1.9c0,1.1-0.8,1.9-1.9,1.9c-1.1,0-1.9-0.8-1.9-1.9C569.6,184.8,570.4,183.9,571.5,183.9z"/>
				<path class="st1" d="M581.6,189.7c0-0.2,0.2-0.4,0.4-0.4h8.1c4.3,0,7.3,2.3,7.3,6.2c0,2.7-1.6,4.5-4,5.3v0.1
					c0,0,0.5,0.6,0.9,1.2l3,4.3c0.1,0.2,0.2,0.3,0.2,0.4c0,0.1-0.1,0.2-0.2,0.2h-3.9c-0.1,0-0.4-0.1-0.5-0.3l-3.6-5.2h-3.8v5.2
					c0,0.2-0.2,0.4-0.4,0.4H582c-0.2,0-0.4-0.2-0.4-0.4V189.7z M585.6,192.7v5.6h4.2c2.2,0,3.6-1,3.6-2.8c0-1.7-1.4-2.8-3.6-2.8
					H585.6z"/>
				<path class="st1" d="M611.2,199.6v4h10.3c0.2,0,0.4,0.2,0.4,0.4v2.5c0,0.2-0.2,0.4-0.4,0.4h-13.9c-0.2,0-0.4-0.2-0.4-0.4v-16.9
					c0-0.2,0.2-0.4,0.4-0.4h13.8c0.2,0,0.4,0.2,0.4,0.4v2.5c0,0.2-0.2,0.4-0.4,0.4h-10.1v3.6h9.3c0.2,0,0.4,0.2,0.4,0.4v2.5
					c0,0.2-0.2,0.4-0.4,0.4H611.2z"/>
				<path class="st1" d="M629,206.6c0,0.2-0.2,0.4-0.4,0.4h-3.3c-0.2,0-0.4-0.2-0.4-0.4v-16.9c0-0.2,0.2-0.4,0.4-0.4h3.3
					c0.2,0,0.4,0.2,0.4,0.4V206.6z"/>
				<path class="st1" d="M648.2,207l-9-9.1c-0.9-0.9-2-2.3-2-2.3h-0.1v11c0,0.2-0.2,0.4-0.4,0.4h-3.3c-0.2,0-0.4-0.2-0.4-0.4v-16.9
					c0-0.2,0.2-0.4,0.4-0.4h2.7l8.9,9c1,1,2.1,2.4,2.1,2.4h0.1v-11c0-0.2,0.2-0.4,0.4-0.4h3.3c0.2,0,0.4,0.2,0.4,0.4v16.9
					c0,0.2-0.2,0.4-0.4,0.4H648.2z"/>
			</g>
			<g>
				<path class="st1" d="M465.6,237.2l-9-9.1c-0.9-0.9-2-2.3-2-2.3h-0.1v11c0,0.2-0.2,0.4-0.4,0.4h-3.3c-0.2,0-0.4-0.2-0.4-0.4V220
					c0-0.2,0.2-0.4,0.4-0.4h2.7l8.9,9c1,1,2.1,2.4,2.1,2.4h0.1v-11c0-0.2,0.2-0.4,0.4-0.4h3.3c0.2,0,0.4,0.2,0.4,0.4v16.9
					c0,0.2-0.2,0.4-0.4,0.4H465.6z"/>
				<path class="st1" d="M476.8,229.9v4h10.3c0.2,0,0.4,0.2,0.4,0.4v2.5c0,0.2-0.2,0.4-0.4,0.4h-13.9c-0.2,0-0.4-0.2-0.4-0.4V220
					c0-0.2,0.2-0.4,0.4-0.4h13.8c0.2,0,0.4,0.2,0.4,0.4v2.5c0,0.2-0.2,0.4-0.4,0.4h-10.1v3.6h9.3c0.2,0,0.4,0.2,0.4,0.4v2.5
					c0,0.2-0.2,0.4-0.4,0.4H476.8z"/>
				<path class="st1" d="M504.4,220c0-0.2,0.2-0.4,0.4-0.4h3.3c0.2,0,0.4,0.2,0.4,0.4v8.8c0,5.7-3.6,8.7-9,8.7s-9-3-9-8.7V220
					c0-0.2,0.2-0.4,0.4-0.4h3.3c0.2,0,0.4,0.2,0.4,0.4v8.8c0,3.6,1.8,5.4,5,5.4s5-1.8,5-5.4V220z"/>
				<path class="st1" d="M516.4,229.9v4h10.3c0.2,0,0.4,0.2,0.4,0.4v2.5c0,0.2-0.2,0.4-0.4,0.4h-13.9c-0.2,0-0.4-0.2-0.4-0.4V220
					c0-0.2,0.2-0.4,0.4-0.4h13.8c0.2,0,0.4,0.2,0.4,0.4v2.5c0,0.2-0.2,0.4-0.4,0.4h-10.1v3.6h9.3c0.2,0,0.4,0.2,0.4,0.4v2.5
					c0,0.2-0.2,0.4-0.4,0.4H516.4z"/>
				<path class="st1" d="M532.7,231.3c0.4,0,0.5,0.1,0.6,0.4c0.3,1.5,1.6,2.4,4.3,2.4c2.8,0,4.1-1.1,4.1-2.3c0-0.8-0.6-1.6-2.3-1.7
					l-4.6-0.4c-3.6-0.3-5.5-1.9-5.5-4.6c0-3,2.7-5.9,7.9-5.9c5.4,0,7.7,2.5,7.7,5.3c0,0.3-0.2,0.5-0.6,0.5h-2.9
					c-0.3,0-0.5-0.1-0.5-0.4c-0.2-1-1.2-2-3.8-2c-2.5,0-3.8,1-3.8,2.3c0,0.8,0.5,1.4,2.1,1.5l4.5,0.4c4.1,0.4,5.7,2.4,5.7,4.8
					c0,2.8-2.4,5.8-8.1,5.8c-5.4,0-8.3-2.5-8.3-5.4v-0.2c0-0.3,0.2-0.5,0.6-0.5H532.7z"/>
				<path class="st1" d="M559.4,229.9v4h10.3c0.2,0,0.4,0.2,0.4,0.4v2.5c0,0.2-0.2,0.4-0.4,0.4h-13.9c-0.2,0-0.4-0.2-0.4-0.4V220
					c0-0.2,0.2-0.4,0.4-0.4h13.8c0.2,0,0.4,0.2,0.4,0.4v2.5c0,0.2-0.2,0.4-0.4,0.4h-10.1v3.6h9.3c0.2,0,0.4,0.2,0.4,0.4v2.5
					c0,0.2-0.2,0.4-0.4,0.4H559.4z"/>
				<path class="st1" d="M587,220c0-0.2,0.2-0.4,0.4-0.4h3.3c0.2,0,0.4,0.2,0.4,0.4v8.8c0,5.7-3.6,8.7-9,8.7s-9-3-9-8.7V220
					c0-0.2,0.2-0.4,0.4-0.4h3.3c0.2,0,0.4,0.2,0.4,0.4v8.8c0,3.6,1.8,5.4,5,5.4c3.2,0,5-1.8,5-5.4V220z"/>
				<path class="st1" d="M595,220c0-0.2,0.2-0.4,0.4-0.4h8.1c4.3,0,7.3,2.3,7.3,6.2c0,2.7-1.6,4.5-4,5.3v0.1c0,0,0.5,0.6,0.9,1.2
					l3,4.3c0.1,0.2,0.2,0.3,0.2,0.4c0,0.1-0.1,0.2-0.2,0.2h-3.9c-0.1,0-0.4-0.1-0.5-0.3l-3.6-5.2H599v5.2c0,0.2-0.2,0.4-0.4,0.4
					h-3.3c-0.2,0-0.4-0.2-0.4-0.4V220z M599,223v5.6h4.2c2.2,0,3.6-1,3.6-2.8c0-1.7-1.4-2.8-3.6-2.8H599z"/>
				<path class="st1" d="M632.6,228.4c0,5.5-4.4,9.1-9.7,9.1s-9.7-3.6-9.7-9.1c0-5.4,4.4-9.1,9.7-9.1S632.6,223,632.6,228.4z
					 M617.2,228.4c0,3.5,2.6,5.7,5.7,5.7s5.7-2.2,5.7-5.7c0-3.5-2.6-5.7-5.7-5.7S617.2,224.9,617.2,228.4z"/>
				<path class="st1" d="M636.2,237.2c-0.2,0-0.4-0.2-0.4-0.4V220c0-0.2,0.2-0.4,0.4-0.4h7.5c4.2,0,7.3,2.5,7.3,6.6
					c0,4.1-3.2,6.5-7.3,6.5h-3.9v4.2c0,0.2-0.2,0.4-0.4,0.4H636.2z M639.9,223v6.6h3.5c2.3,0,3.6-1.3,3.6-3.3c0-2-1.5-3.3-3.6-3.3
					H639.9z"/>
				<path class="st1" d="M665.1,234.2h-8.6l-1.3,2.7c-0.2,0.4-0.3,0.4-0.6,0.4h-3.5c-0.2,0-0.2-0.1-0.2-0.2c0-0.1,0.1-0.2,0.1-0.4
					l8.3-17h3l8.3,17c0.1,0.1,0.1,0.3,0.1,0.4c0,0.1-0.1,0.2-0.2,0.2H667c-0.4,0-0.4,0-0.6-0.4L665.1,234.2z M658,214.1
					c1.1,0,1.9,0.8,1.9,1.9s-0.8,1.9-1.9,1.9c-1.1,0-1.9-0.8-1.9-1.9S656.9,214.1,658,214.1z M657.9,231.1h5.8l-1.6-3.3
					c-0.6-1.3-1.2-3.1-1.2-3.1h-0.2c0,0-0.6,1.9-1.2,3.1L657.9,231.1z M663.6,214.1c1.1,0,1.9,0.8,1.9,1.9s-0.8,1.9-1.9,1.9
					c-1.1,0-1.9-0.8-1.9-1.9S662.5,214.1,663.6,214.1z"/>
				<path class="st1" d="M677.1,236.9c0,0.2-0.2,0.4-0.4,0.4h-3.3c-0.2,0-0.4-0.2-0.4-0.4V220c0-0.2,0.2-0.4,0.4-0.4h3.3
					c0.2,0,0.4,0.2,0.4,0.4V236.9z"/>
				<path class="st1" d="M683.8,231.3c0.4,0,0.5,0.1,0.6,0.4c0.3,1.5,1.6,2.4,4.3,2.4c2.8,0,4.1-1.1,4.1-2.3c0-0.8-0.6-1.6-2.3-1.7
					l-4.6-0.4c-3.6-0.3-5.5-1.9-5.5-4.6c0-3,2.7-5.9,7.9-5.9c5.4,0,7.7,2.5,7.7,5.3c0,0.3-0.2,0.5-0.6,0.5h-2.9
					c-0.3,0-0.5-0.1-0.5-0.4c-0.2-1-1.2-2-3.8-2c-2.5,0-3.8,1-3.8,2.3c0,0.8,0.5,1.4,2.1,1.5l4.5,0.4c4.1,0.4,5.7,2.4,5.7,4.8
					c0,2.8-2.4,5.8-8.1,5.8c-5.4,0-8.3-2.5-8.3-5.4v-0.2c0-0.3,0.2-0.5,0.6-0.5H683.8z"/>
				<path class="st1" d="M713.9,226.7c-0.3,0-0.4-0.1-0.5-0.5c-0.3-2-2.1-3.6-4.8-3.6c-3,0-5.5,2.3-5.5,5.7c0,3.4,2.3,5.7,5.5,5.7
					c2.7,0,4.5-1.3,4.8-3.3c0.1-0.4,0.2-0.5,0.6-0.5h2.9c0.2,0,0.5,0.1,0.5,0.4c0,3.8-3.5,6.7-8.8,6.7c-5.3,0-9.5-3.7-9.5-9.1
					c0-5.4,4.2-9.1,9.5-9.1c5.6,0,8.8,3.5,8.8,7c0,0.2-0.1,0.4-0.5,0.4H713.9z"/>
				<path class="st1" d="M738.7,236.9c0,0.2-0.2,0.4-0.4,0.4h-3.3c-0.2,0-0.4-0.2-0.4-0.4v-6.2h-10.1v6.2c0,0.2-0.2,0.4-0.4,0.4H721
					c-0.2,0-0.4-0.2-0.4-0.4V220c0-0.2,0.2-0.4,0.4-0.4h3.3c0.2,0,0.4,0.2,0.4,0.4v7.3h10.1V220c0-0.2,0.2-0.4,0.4-0.4h3.3
					c0.2,0,0.4,0.2,0.4,0.4V236.9z"/>
				<path class="st1" d="M746.9,229.9v4h10.3c0.2,0,0.4,0.2,0.4,0.4v2.5c0,0.2-0.2,0.4-0.4,0.4h-13.9c-0.2,0-0.4-0.2-0.4-0.4V220
					c0-0.2,0.2-0.4,0.4-0.4H757c0.2,0,0.4,0.2,0.4,0.4v2.5c0,0.2-0.2,0.4-0.4,0.4h-10.1v3.6h9.3c0.2,0,0.4,0.2,0.4,0.4v2.5
					c0,0.2-0.2,0.4-0.4,0.4H746.9z"/>
				<path class="st1" d="M763.3,231.3c0.4,0,0.5,0.1,0.6,0.4c0.3,1.5,1.6,2.4,4.3,2.4c2.8,0,4.1-1.1,4.1-2.3c0-0.8-0.6-1.6-2.3-1.7
					l-4.6-0.4c-3.6-0.3-5.5-1.9-5.5-4.6c0-3,2.7-5.9,7.9-5.9c5.4,0,7.7,2.5,7.7,5.3c0,0.3-0.2,0.5-0.6,0.5H772
					c-0.3,0-0.5-0.1-0.5-0.4c-0.2-1-1.2-2-3.8-2c-2.5,0-3.8,1-3.8,2.3c0,0.8,0.5,1.4,2.1,1.5l4.5,0.4c4.1,0.4,5.7,2.4,5.7,4.8
					c0,2.8-2.4,5.8-8.1,5.8c-5.4,0-8.3-2.5-8.3-5.4v-0.2c0-0.3,0.2-0.5,0.6-0.5H763.3z"/>
				<path class="st1" d="M786.3,237.2c-0.2,0-0.4-0.2-0.4-0.4V220c0-0.2,0.2-0.4,0.4-0.4h9c4,0,6.1,2.1,6.1,4.8
					c0,1.4-0.6,2.5-1.5,3.3v0.1c1.4,0.9,2.2,2.3,2.2,4.1c0,3.4-2.5,5.3-6.7,5.3H786.3z M789.9,223v3.6h5.1c1.8,0,2.4-0.8,2.4-1.8
					c0-1-0.8-1.8-2.7-1.8H789.9z M795,233.9c2.2,0,3.1-0.7,3.1-2.1c0-1.3-1-2.2-3.2-2.2h-5v4.3H795z"/>
				<path class="st1" d="M817.3,234.2h-8.6l-1.3,2.7c-0.2,0.4-0.3,0.4-0.6,0.4h-3.5c-0.2,0-0.2-0.1-0.2-0.2c0-0.1,0.1-0.2,0.1-0.4
					l8.3-17h3l8.3,17c0.1,0.1,0.1,0.3,0.1,0.4c0,0.1-0.1,0.2-0.2,0.2h-3.5c-0.4,0-0.4,0-0.6-0.4L817.3,234.2z M810.2,231.1h5.8
					l-1.6-3.3c-0.6-1.3-1.2-3.1-1.2-3.1H813c0,0-0.6,1.9-1.2,3.1L810.2,231.1z"/>
				<path class="st1" d="M838.3,220c0-0.2,0.2-0.4,0.4-0.4h3.3c0.2,0,0.4,0.2,0.4,0.4v8.8c0,5.7-3.6,8.7-9,8.7c-5.4,0-9-3-9-8.7V220
					c0-0.2,0.2-0.4,0.4-0.4h3.3c0.2,0,0.4,0.2,0.4,0.4v8.8c0,3.6,1.8,5.4,5,5.4c3.2,0,5-1.8,5-5.4V220z"/>
				<path class="st1" d="M864.3,236.9c0,0.2-0.2,0.4-0.4,0.4h-3.3c-0.2,0-0.4-0.2-0.4-0.4v-6.2h-10.1v6.2c0,0.2-0.2,0.4-0.4,0.4
					h-3.3c-0.2,0-0.4-0.2-0.4-0.4V220c0-0.2,0.2-0.4,0.4-0.4h3.3c0.2,0,0.4,0.2,0.4,0.4v7.3h10.1V220c0-0.2,0.2-0.4,0.4-0.4h3.3
					c0.2,0,0.4,0.2,0.4,0.4V236.9z"/>
				<path class="st1" d="M880.9,234.2h-8.6l-1.3,2.7c-0.2,0.4-0.3,0.4-0.6,0.4h-3.5c-0.2,0-0.2-0.1-0.2-0.2c0-0.1,0.1-0.2,0.1-0.4
					l8.3-17h3l8.3,17c0.1,0.1,0.1,0.3,0.1,0.4c0,0.1-0.1,0.2-0.2,0.2h-3.5c-0.4,0-0.4,0-0.6-0.4L880.9,234.2z M873.7,231.1h5.8
					l-1.6-3.3c-0.6-1.3-1.2-3.1-1.2-3.1h-0.2c0,0-0.6,1.9-1.2,3.1L873.7,231.1z"/>
				<path class="st1" d="M901.8,220c0-0.2,0.2-0.4,0.4-0.4h3.3c0.2,0,0.4,0.2,0.4,0.4v8.8c0,5.7-3.6,8.7-9,8.7s-9-3-9-8.7V220
					c0-0.2,0.2-0.4,0.4-0.4h3.3c0.2,0,0.4,0.2,0.4,0.4v8.8c0,3.6,1.8,5.4,5,5.4c3.2,0,5-1.8,5-5.4V220z"/>
				<path class="st1" d="M912.2,231.3c0.4,0,0.5,0.1,0.6,0.4c0.3,1.5,1.6,2.4,4.3,2.4c2.8,0,4.1-1.1,4.1-2.3c0-0.8-0.6-1.6-2.3-1.7
					l-4.6-0.4c-3.6-0.3-5.5-1.9-5.5-4.6c0-3,2.7-5.9,7.9-5.9c5.4,0,7.7,2.5,7.7,5.3c0,0.3-0.2,0.5-0.6,0.5h-2.9
					c-0.3,0-0.5-0.1-0.5-0.4c-0.2-1-1.2-2-3.8-2c-2.5,0-3.8,1-3.8,2.3c0,0.8,0.5,1.4,2.1,1.5l4.5,0.4c4.1,0.4,5.7,2.4,5.7,4.8
					c0,2.8-2.4,5.8-8.1,5.8c-5.4,0-8.3-2.5-8.3-5.4v-0.2c0-0.3,0.2-0.5,0.6-0.5H912.2z"/>
			</g>
		</g>
	</g>
</g>
</svg>
